<mxfile host="app.diagrams.net" modified="2023-08-08T11:59:12.437Z" agent="Mozilla/5.0 (Macintosh; Intel Mac OS X 10_15_7) AppleWebKit/537.36 (KHTML, like Gecko) Chrome/115.0.0.0 Safari/537.36" etag="HpI_dYEC6bHIrp5VtIID" version="21.6.6" type="device">
  <diagram name="Page-1" id="YPzApjWMyBNqAa3CuARX">
    <mxGraphModel dx="1228" dy="862" grid="1" gridSize="10" guides="1" tooltips="1" connect="1" arrows="1" fold="1" page="1" pageScale="1" pageWidth="1000" pageHeight="700" background="#000000" math="0" shadow="0">
      <root>
        <mxCell id="0" />
        <mxCell id="1" parent="0" />
        <mxCell id="9z0CNP4QUnbibLwf2Hai-8" value="" style="ellipse;whiteSpace=wrap;html=1;fillColor=none;strokeColor=#FFFFFF;dashed=1;" vertex="1" parent="1">
          <mxGeometry x="105" y="40" width="790" height="520" as="geometry" />
        </mxCell>
        <mxCell id="9z0CNP4QUnbibLwf2Hai-2" value="" style="shape=image;verticalLabelPosition=bottom;labelBackgroundColor=default;verticalAlign=top;aspect=fixed;imageAspect=0;image=data:image/png,iVBORw0KGgoAAAANSUhEUgAAAMgAAADICAYAAACtWK6eAAAABHNCSVQICAgIfAhkiAAAAAlwSFlzAAALEwAACxMBAJqcGAAAH/hJREFUeJztnXe4XUW5xn8ph4QQiKkQARNApBcJCgLSBCzgFbhyuaIICigiTS9NLkoTVEQELOhFqSKKgIIiRSSIqIAISC+hBRIISaQkpCfr/vHtbY7Hs2beb6212znzPs88yXP23u+amTXfWjNfhYSEhISEhISEhISEhISEhISEhISEhISEhISEhISEhISEhISEhISEhISEhISEhIS2w4BWd6CPYziwFjCx9u+awJhaGw2MAoYBKwBDav8CLAIW1v6dB/wDmA3MqrWpwHO19iwwt/FD6Z9IAlId1gO2BDattU2A1Zt07WnAg93a34AnmnTtPo0kIMUwEHgXsCOwLbAN9kZoJ8wC/gz8CfgD8FdgWUt7lNCnMQbYH/gptviyDmsza33fvzaWhITSGAUcDPwOWELrF3lVbTFwC3AQMLKy2UroFxgEfBi4Djskt3oxN7otqo11j9rYExJ6xerAacCLtH7Rtqq9UJuDZikXEjoAmwOX0z/eFp63ymXAZiXmNaHDsT12tmj1Ymz3dguwXcE5TuhAbE0SjCLtZuDdBea7o9Gf7CDvAM7GDuDNxMvAM5jF+znMCj6L5ZbxN7AtTb2BWdTrbQRmYxmNqWffxnLr/DrAqk0ZxXJcBxwLPNXk6yY0CCOAc2jOGWMKtnc/CtiZ5tgbxtSudXTt2k83cHz1thD4JrBKE8aX0EAcALxC4xbKs8D3gb1p/pM8hNWA/wQuwN5ajRr/DMzwmNBhWAs7XDZiUdwN/A/me9UpWB/r8900Zk5uAiY0bTQJhTEA2968SbUL4FHgOGzf3+lYCzgeeIxq52gucAT961zbURhPtW+NecCl9G0V53bYGOdR7dtktWYOopHoK9L+EeDHVONROwP4HrZ/n1UBX08MAsayPCZkJLAiy7VWsFyjNR94leUar5nA0gb0aQzwOeBwYFwFfDMxH7brK+BKKIHBwLeo5sn3LHAIFrhUBUZh7vBHAhcCt2Hq3sUl+ri4xnEb8H817h2pzuFwKPAZqjvYn0Xy72oZxgGTKX8TXwAOBbpK9uftmIBdgtkIqtzfK+1J4GLsyb1OybGsgL1RqvBL+z3Jvb7p2AJb2GVu3BzgS9hTswgGA7sB59MagVAE5jxg11pfi2AocCI2V2X6MhXzeUtoAvbANCZFb9Yy7Ek7vsC1B2Bbmh9i++xWC4HaZtb6vCPFzp3jsTfjshJ9mAN8sMC1Exw4nHKBS48D7y1w3VWBEzBLeasXe9n2FKbmLWLY3AGLdS967SXY1i2hATiD4jdmce333gP4JpgadGGJa7drW4i9FTZ2zslQ4EzKKRtOc14zIYABwLkUvxlTgK2c19wauLHENTut3Vhwjsr4fX3Leb2EXjAQU2cWvQkXY7mpVLwTuKHE9Tq9/aY2BypWxt5CRa/3Q+weJxTAAMx+UGTi5wMHOq5VxSG0r7S6EsNjDf8UNudFhaRt0c6W9PMwQ5gXz2GerPcJ3x2MOfGdhO9NUxbzgZcwzc7c2r/1/1Pry8q1Vv//eMzi3izMBU7HQgWWCN+fBFxDMafFc7D7kCCi6IH8TnR3k0nAAwWvo7bXMP+w72AauF2xgKciD6YBtd/uWuP6To37tQaP4f7aXCkYg92DItc51Tkf/RZHUGyCf4amperCtDCNyHM1F3PWOw7LvNgMN4tBtWsdV7t2GRtRXluCPbQUb4MhwM8LXufQgnPQb/BhzBnPO7HfRHsqrwfcW4A/1F7Dzko7Ut5dpQp0YX25kOrfLvcA6wp9GIDdkyKCmIyJOZhEsaffSSL/x6kuTmQxpvH5L4q7qjQDQ4F9sb6WsVt0b3OBj4nX/3IB/jkkt5R/wziKOcZ9QeDuwvylqnpbfJX2Cq9VsSrW96reKt9G8/H6QgHu50kOjv/EYOB2GiMcowpy92yvYE57I0qNtD0wAhtLFb5ktwFvEa5ZREhuJbnKA6bi806esq1am3J+Qxm2iI7Gitz0NQzDFm7ZTPWPooUif6UA99fLDrLTsRf+SfuGwDuJctlMlmEW/FHlh/hPjMTcMw7AtGjXAHdgatQpWCTjvFqbUfvb/bXvXF37zQE1jiozso8GfkQ5I+nLaBb4Igf3PcoPsTOxOhZK6pmsnxLXVm0LvO7k7d7+ht8vqTesiS3oy7B4iDJP6d7aVMyR8gBgjQr6+x5MIIv259UaRwgDMHW8h/cVOvPMVwoDsD2mZ6LuIG7n2InidoB5mA2mjG/QO7EtYysCqJ7CHADLaIAGYVlhirqNzMFUzCEMxW9MvJH29vqoHN5D2zPELeTbUlw4HsNc24tgPJaK88GC125E+ztwDMWCwsCyuhc9v80h/iYZg+UA8PAeXnAsHYe18dkj5hF/Km5J8W3VZcBKBcaxEXAF7V15agnwE2DDAuMbXvttkeu+SvxMMgnfm2oO/SQ5nXdr9ckI3zoUU1m+iXmhejEJuJbO8vxdhikFtigw3oMoljdrBpakLoRPOzlvLND/jsKn8E3IjyJ8o7HkBN6bNwv/QXwC8MsC12q3dg2mQPDgPfgVKhm2dY1p3C5xcn7C2feOwUh8OvcnCW99urCDu/emTcVy1arowrKfVJ3OtJVtLhaX7vEd25BimWQmE7a4r4wv1n8GfTSr/Hnok7AY81AN4XsOvnp7BJ9KdHvMENbqBd2o9gi+1KprUiyn77kR3q3x+Yqd5ehzR2ADfBMQC+o/wMFVb3ejG/4GYvEJRTyLO60twazcqnp7NObV671OzMHREwO0EEvU12fgifN+lOU5anvDhvgPjQ+jW59Xw3yMGrEYp2MxG+cBhwG7YCrVdTCHzWG1Nq72t82wAKnPYw6XN2ORiI3o263oBrlR+N+sc7EqX3kYik+1/Euxr22PbdEHvQzYJsC1Av4owOfRyxrviLlNVLXo/gFchQUCVVlPZH0sv9QvMJVqVf19Cct9pWBN/GeSvxI+9+yATzsY24Z3BCajD/jCCNfZDq4MUwqoB/J9qSb/1ULs6bYX4TdhVRiCxeD/imrKzC0E9hGvvQF+7dbXIpyXOLhuEvvZttgZfbCvE069vzW+M8Gb6FVZD3dy99ZewbRdVZRgKIoxwP9S3pV9KbYFVLA1vi3vEsywm4fx+HIBbyv2sy0xGX2gxwV4VsA0Lp6brNbOO83J27O9iPkvtZNL/EqYO880yo1NTaTgNfg9QFj1e6KD62axj22HLdEH+Tzh7Yg3dPMisY9lhGMBlhanmal4vBiGucmX2TqeIl7rMifv8QGuofjON5uKfWwrXIk+wIMDPGvie4U/jPY0P9zB2dtTS0le0C5YD7+LT/emJJxeCZ+NZA5hZ8pDHVyXCf1rK7wN3e4xhfDr1iNob6I55u1LsTPHfBqbmqaLxmZGOYJib5OlwEcF/k3wPcwuDXB1oXv8LkLXVLYFzkSfpAMDPFs7eDK0xbsTxRbJE5hdoiw2wCpRnYPZh57EtG3d+7Sw9rcna985p/abDSq4/iSKJZ1egHkWxODJa7aMcFK6gx1cHZN4bjC6MWsa4SemZ1twN3Fr8HjMl8e7OH6N+QwVQRewJ+Y6Pr3AtXu26TWuPSn+tlmFYtnrpxMv8jkQi8pUOX8b4BqCbpd6gQ5J8uCJMz8hwLODg2cpcVfugRSzkF9MsRJm62LpQcsmRQi1mZiFvYjbRRfF4j1uIf4g2gqfwS8UYHWSg2d3beitxW/RBjOXsPvHZJEnA74r9OtUB1+9KQkiemJj7NzUzECqJVi8vrcYzgAal1XGU7bilgDPKHRP6l8pg24lxqEvjJDV3KMifpl4bqYd8B/KvSlnRgI/KHCdKttS4PvCfPSEV0iWEDfQjcJnsAyd7y4WORZRbcaXyvE59AkJWbk9mS9iKsgV8Ltoq3aUOvajXJqhqtsM9PSgYG+SK5zXeIj41vMoB9/lAZ5tHDyfVgfdCkxGG8TfAxxroL+FphPPdPIlkaverkc/7A2jXIWlRreL0A2ZXZh9x8N/jDA/6oNjEWG7iOpJ0baW9dXQtxdHB3hOETky4kVXJuCLBHwcvZDOOvjdX1rRHsISZSgYgWWQUbnnEA9A8zygTgzwHCtyLKZN8/qq/jjLyDfqDERPsjabeDYSTwz5fHSXhXdSTF3cqvYSer6sd+GzE10V4VsF3SX/afLzX01w9Kkt49Z/gdb5PwY4PihyZFgUXAieg34GfFYc5/aUy9wYaouoxmW9t/Y6eo34o53cMQPq6Q6u9wV47hI5rhDH2TQMRk+rf0SAR3V4W0g8fNbz9lDTyWwBvOHgzWvPY2eXQ7BFuxr/6qy5Qu1v761955Lab6oQEvVNMtnBG3uLjEUX/JB284sixyzarHrue9EnMy9X0hD0J/M1kf5sjG6oWoBmaFuXctuqV7FQW7XeX2/YssZRJorwJbQzyYbo/nRLiQemXS9yzSbfQ+AdjnFWkV+5Mqju6E8EOP5D5MiAj0T681MHl+LDM5xi2TzqT7PjKO6q0htWxtzFi+SqyjDlguLx7MnGHnI8BHN2VLk+EOBR/chC8UVNx01onQ6lf1Fros8k7IO0OrqaeCpaCbXLRb7urV5CoZERhmMoXrpAsfUMR/eFWky4tvoQ9DdfyDNCTfd0nTC+pmAg+tYoVOtBLcEWcys5XuTJCJ+H6jjAwVdvs4APCdxVYQ+KvU32E7iPc/DFqn79UOR5OsCxp8gxkzbJCL8p+hM172C9iciRYS7wITws8swgbkQbg3/hPYrFwzQbE/BvA18h7pqxMpadReG7P8LlOavmBaSNc3B4Mmg2DKr949EAx5Eixz8IaycmiTwZYU/iOn7s4MuwhGpVVqXyYjSWWsfT5x8IvB5Hz1AZicHoWsCQ2l3Nx/xxYWwNx7fROhtS36mF52PJws4VeRYSf3JugW9v/witFY46RuN7kywlXhtlVfRzXSwtqJpEMBRGe5HIUcQbu3L8Hq2zIadC9fxxZKQvqoYjpiYGK3GgLrKZ+DOm17EeloHlVCy24/za//eneLK5Cfi2hj8TONUAq8ciPMeIPM8EONR8Am1RLkF1ac5zj15d/H1GON5hgoMnpibeCP3tsYywWrI3jAVORvN7eqb23bHOa+zhGMNSwmlBwQ706vy+NcCzhYMnL3pxe/H3L0bG1HCMRl9EeSnrPyRyzIj0RT0LzSIequoJ9vl+hKs7hmAuMkVKKbyJ2Zs82RpV1XmGqU9DGIae0C3kCzUQ/dC/Sw7HSMe4qrQ/uaH6Oz0X4DhB5IhFi6nho1dGeIaiq61noAcnrQ3cJ/KG2r3EKzfVMRo95Hc2ceH7tcgVs7GoUachtbG6LS9aexIo768yUfxeaD+phok+Hvl8J5FncuTzPdELtJyJ+aDFsBnwZ7Ra4jFMAv6C5nk8G/2gOop4TfLY3NURuxchj4ruCC3ukK2kOyaK3+sVZQVEfZI9G/hMTTgQmtQxhPe93RG7yWri5pnEk22DxY3cQrW1vletcSrzfwG2pVEQG/ttIs9Ewg8ZVUDWCXz2nMihrtFeUVZAVM3Nc4HPJoocoUlVtT3TsHrieRhIvM53HRdhSdJCGIppzGKpcopgVeBq4tuiucT9pOrYOfL539GFLXRPVAEJLe7QQ7c7imoXgfICompWpub8fUX0J2sVAvJg5PPN0W0ZSrrL/6WaZHN52ALN4PkTkW8c4S1vhnkqKKhCQFYnX6GSt6Z6wqv9+xeUFRDVEW9Wzt/VbdHsWsuDKiCxG6MGFD1O2DMALL76WJGvDE4g/oa6D/2JG5sDdXGH7sl0TCMWw0DyHSDz1lRPlAq/LSsg6sXzBqP+flrk86oERE3tqRxWjySeUKIKrIgZzmJQD9ixOahCQMCEREHeGukIAVG3I3lPf/UNNDfyubrHj91c1bntT5HPBwCfFLnA4uEvxrwNDsMiCOc7fq9c606RK7awVQGJ3RPlDQL5ayS0o1B+L6FISs3uUIvGvJ7zd1XAYpOpGoNmRj5XSxrE3Ck2R98+PoalzOy+BboAi+O+AU1oJ2ARgKFtX6zPdcQs6q+IPLF7ogpI3hrJW1M9Uap+S9k3iGrVXZTzd7XzVQlIjEd92oQ0YaCHe87DPAl6Ox88g9klFohcsWs+KfLEHlrqwq5KQPLWyELx96XqRLZaQNTfx7ZYai6r0E3pQjszLI7wgG7buZKwCvxpLFuMgtiTvx7NF8NwwoFGzRaQvDWiCkipc2BZAVEvXlZAqnqDhARNFbKYsIKeH/Zu4Tt3iVyxa2aYP1cMAwnnG2u2gOStsbw1pf5eQrNSoyhPrhCWRD5Xz1Ihnio46lDnVZkXde6Uayp9h7Azp8oRm0+VJw9l15SEsgJSVorV38feNIsr4FFf2YpiQvHPAstiWMV3wLZQMcQyUdYROveoT+TYfJblqaofQTRLQPIWZlUCoh5kQ9uoOZhbfgwrERcS1ZFuP8K5bd+G1VNUMCXy+Ui0ilQLCauYqxAyKL897wgBKXtQUnX9sf2s8vSEsIYmI64GriPmAHePyDMccyHvLVfxGliyNVWVHrum6rQXU+Oqmr7YPVHPjXmCpp5fSwlIWTuIusBXofeJVxd2zBo6G83pcTxhdefzaL5hm2Ax6Hm4FxuvYsDcHLNRXM7yQ/tWWMituoimEfczU+Mino98HipR0B0xQ55q4c5zjhwh/t5jcP03lH2DqJ6deZOhWkNjk/myyDMx8rlqJQ7V1APbqoUKwvTEypgF/dJaOwxfJFw9p3EI24hcsbibiSJP7J6U9eMrK2ASygpIWX8Y9fcxq3TsqVdHzFL+gMizq/Cd89HPWGWwAK1GY174ak+EihuBbuN5LvK5Wtc8b42oXrrqGusVZQWk7BtAdVgbR3gvHopY7I5Y9KJilwBz6Iv5LE3FUiI1GmcTn8dN0YvoxOZA3aqFvIdHom2RlpH/JlLfQOoa7RVlBUQ91OYFrcxD9+2ZGPgs5npeR6xU9D1oxjSwlKQxnIretyJ4CPiq8D2lr2BJ3e6LfEcNGw6NW1UYTCNfha9mr1TXaK8oKyAviN8LTchzIkfIDfshkWNNwq/2xehhpQcTT3w9H6sbX+oploOZNe6YlmY48CmR81YsBVAe1kXf+4cCq9SwgtBbSH0jqmu0V5QVEDUIJyQgMf19HaEkBS+iv4l2jHx+rcgzFviM8L0nsbxZpQ6LPTAL2A3N3nIYuutLLHOMmhgjdj/UbVpofFXkQ2g41LQ/ofBItchjLO3or0SeWHz2KtjWT037o6ob18XedGXT/jyA/vQchZ5hcR5xzdnVItfPIzxVpP2ZJnKoWXMaAjVxXEb+Qtpd/H3sIKqmtJxF3P5zqWNcigapjqHAGdjWyysY87AKwB73bU/y7YuFvquJp0NlJQag5+rK07yNcoxLtfw3DGrq0bxY5zXE32eEX6ubOXhiKk9PlvhlaGrf7ngr8HUH/1cJF6fpDR92jCEjrsDwVAALBXlt4ODJM7TuJP6+5alHwQ61Smc/H+BQX5f7R/oyXeRR0uD8TuTKsK2WN73MYJG7iNfr2viSV98icKpVjGM2qUNEnpDq/iiR47fCuIKowt09ZliqI/SEisV417Fb5PPrRZ6PEj87fFnkAnvS3YCekbGRWBn4Db5SDLGS2mOwN4iC2EH//SJPaE2oquaY+01TcCCaNIfcONQnwiuEo912EXkyrKRwDFc5+DK0YjR1NOoN4im8mREv4QyW30vlC6UN8pQLPzTAM0Xk+JgwtoZDLcGWke8e4OEIxV4PQt9mPUv8sL4mekbzDHP7UL1vGyUgnlLVc4gb3Iagz+lUwruSHRx9y/NUGO/gaIsSbJ4innsGeNRs3WdH+vMNkSfDSibE8HkHX4b++m+EgIxw9lXJp6UWq8mA0yJcaoXa0PljH5GjlAW9atyM1unvBDhUleRUwtusddELxzxLPPBmAHp1pQwrvqOgEQLShXkDKLw3Ea8COwxdgbKUsJZxEPrbLVRz5QKRI3YWaiq+jNbpkNV8L5Ejw17VIah18DK09KBjMMGMcc1Gj7Fp1BbrVoFzKprLyMliHzPiHgjvd3DtHuB5XuQ4Rhhf07AD+uDz9pYrou/3r4j0x3NYfwPN9XpzoX9KIuk6GiUg2xAuuDkXbRu4Fr5KWLGcvqoV/lXyjaEbO/rzbmGMTUMXupU1pD26QuRYQFyNeZfIlRF3Y6ljN/KF5Cf41OaNtIPsR+/uMrOIlziow7OtvD3CtSoWG6NwhapTHS9yzKJ5GXtkqFVh/xLg8Fh/vxTpzwccXBlxI2QdEzH3kkcwT+SbMLuKF40UEDDt1KmYbehabCupxlB8RuxbvcWcGE9xcIVsXfeKHLEdRktwEPokTMzhGAy8JHJMJ+6XNNnRp9fRo+WqQKMFpCjWx7Zh6rzdFOFbEd0d6Xnyn/zrOvr0cdeIm4Tx6Nqj4wM8Z4ocGXE17RaOPmWYp2ypZMcOtKOArIS9GdX5WkJca+dRk58c4PmKo0+lMro3EneiDSIU4LQW+qJ+hmpLOmeYZTmm/qwC7SYgA4HrxD7V23kRzqHo9q0lhHOEPSHy3CqPuAXwGJVCWTbU2I4Mq6kRwluwuGbPjT9LHnFxtJuAnCf2p95eIB4/8kUHX8jlZUcHz8HqgFuBVQmrGLu3kEftdiJHhp1FYomn93bw1duJ6qALop0E5GSxL91byFYB9mBSzx4Z4RSrV4oci9CjJ1sG1U18PmFV7V9Engz4mtAvTxBUvR0kjbgY2kVADhP70b1dIPCe6+C7PcAzFou7V3h+rQy41fgY1Tyl1UjDDLOLxDRQq2Dx4Z6F8Ab2JGwE2kFAxuIzBmZYMoaYQ+ZG6C4vGWHbzCkOnr20YbcWK2Bu6cqAXiacGeTPIk+GqXRjh+tN8C+IRqkM20FAPi32ofsDI1aoZyC++xbKIjMMPTx3OuVT6TYNZ6FP0GcDPDs7eDK0LCP74lP9xgySRdEOAnKa2IcMc0b8iMCpxvbUW0hZc6SD53RpxG2Ct6MvwimEJd/jePg6WsaPkxycjdKKtIOAHCH2IUMLMFsPn5Hx6gDXEDQH0brwTpBG3Ebw6NRDb5F3oPvxZFjqTKUOhuI2vZiwbr4M2kFA1sEWV6wP5whcQ4D7Ba56m084W+bRDi4lKrLtsA36AKcRPot4tmwZmh1jAJaBPcTzDXGsRdAOAgIWoxO6/o9EnvMjPD1baEs0HP0cm2FZaDoSf0QfZCguYzjmGOi5AfsI/RuEBef03A4uw274IHGcRdAuAjIYi6Xved1lWPJtxSv2k738PtSeIuzSc7KDq6GW80a7VOyOZdhQ8Aa2h83L5r0rWnqaOt4EtkXLurIpFg48Hnub/ZJwgZwQhhLP2QsmfEpq/qXo+XAXoJej64lNsDl4KzYH16Il3t4SexAqYwZb1DsBf8j5fAJWUEj1idsNs711LDxxGZdFuC5ycGWYO0SjzhDdMQDToHkc/RrVHqZ57hYT0b2v6y2W+eUaB9cdVQ6mVXgf+oCXYU/9PKyMJTT2LphGGfvAhKNe4amd2o8bOGYwj9nHnX16nHAq0F2dfNtVPKaWQYmT7r6gQ4kU3o1Pq5VhbiuekmYeeOJgmt0+0aAxjwD+6uzLAixsOQ/D8D38bqh4TC3FlviMc2dG+I51cNXbncSdGovAo9psdrurAeNdBd+2ud6OjPB6tGBLsVzMfQqe88MSTKhC8GY9zPAdJhUMQrMjtKqVKoHcC4ZiKUG9/YgVNN0e3wNUcZbsOIzDMlaok/AoYae4lTANlfdmKSXLVAwtcP1mtyr9k04pcP17CT+URmCBbyrfLHx5hzsKHt+ajHCGCzAtijcYajbVZbzobwKiRgfW2zTiWe/VrPH1FvK66HgMAv6Gb0JiB80t8OXPzdALQMbQnwRkFed1XydcNg/8sSh30YbpfKrGJvi0UHOIl9HazcnpLUaTh/4kIEPQo0UXEs+/tRWm2VLHsQC9+GfHQ81QUW/PELcm740WpKPWVFfgEZDXKm7NFhDQXIcWEa8lsjp+A6Mna2XHYzBWj9szQbcT99Ldh7iQHFLhOFQBKer+EUIrBGRXwtqmxcSj+lZETwBXb/fQWL+4toQ3QVlGvNAkmJDkvbq/V+kI+p+AgOW56u0hNJdweQuwRe5xJckwH71mJvRrKxyIb7IyNBf09TE37SexbH03YGlNq0Z/FBCwmPPvYjaRP2D3RKnR6M1RlgH/XXHfOw5Fso0o0W3NQH8VkCI4Hf99vrAlPW0zrIRlWvRM3DJMRdhqJAHR4KlxWG/307w0sG2PtdCzV3RvSgmxRiIJSBxejWWGVaKqylbVZ7AjvlxK9XZUC/paRxKQME7J6VOoLSQc8tCvcSj+Cc0oVp+jCiQByYc351a9KYVV+zXOwD+poboSjUQSkN7RhS/pQr19pQV97UgUUQe2Ij4gCUjv8GS0qbdQBeSEHihiUNqlBf1MAtI7PKX0Mix7ezNqsvQprIAv+VwrrK1JQHrHRo7+Xd2iPvYJdGEpeGKTfG+L+pcEJB8PCn27qoX96zPoIrzdmk/ramInAcnHNoTd2X/Wwr71OQzG/H16FlKZQmtTvyQBCWN77B71nIsz6BDv3E47GI0FdsDimKdgmUqWtrA/Q7E3WAwLqTZZBNhiU9BF80tJd8cgzPC3DhbHcgcW9pzQD5DeIH0cfT6+NyGhDJKAJCQEkAQkISGAJCAJCQEkAUlICCAJSEJCAElAEhICSAKSkBBAEpCEhACSlbV5aETxnoQGIwlIczAES8Kd0GFIW6yEhACSgCQkBJAEJCEhgCQgfR9q3EhCL0gCUg6LaG0wUgwLaG1AWccjCUg5LKN1CSMU3N3qDiQk7I0e3dfstkcDx52QIONrtF4YerbTGzrifoJOS9rQzvgglml+Eq2razEPK7N9LnBzi/qQkJCQkJCQkJCQkJCQkJCQkJCQkJCQkJCQkJCQkJCQkJCQkJCQkJCQkJCQkJCQkNBY/D9dB3B0LwYhBAAAAABJRU5ErkJggg==;" vertex="1" parent="1">
          <mxGeometry x="196" y="250" width="100" height="100" as="geometry" />
        </mxCell>
        <mxCell id="9z0CNP4QUnbibLwf2Hai-3" value="" style="shape=image;verticalLabelPosition=bottom;labelBackgroundColor=default;verticalAlign=top;aspect=fixed;imageAspect=0;image=data:image/png,iVBORw0KGgoAAAANSUhEUgAAAgAAAAIACAYAAAD0eNT6AAAABGdBTUEAALGPC/xhBQAAAAFzUkdCAK7OHOkAAAAgY0hSTQAAeiYAAICEAAD6AAAAgOgAAHUwAADqYAAAOpgAABdwnLpRPAAAIABJREFUeJzt3Xm8dXP5//G3OZQxFOk2FVHKkCglSgOSocF8C9FMSJkiGgyZKaUMRaYGU2QWTVSUlEjRIEWEytD4W9dvW313xzlnn33WutZ1rbVfz8fj/cf9z/3Y17U/e62z91rr+kgAAAAAAAAAAAAAAAAAAAAAAAAAAAAAAAAAAAAAAAAAAAAAAAAAAAAAAAAAAAAAAAAAAAAAAAAAAAAAAAAAAAAAAAAAAAAAAAAAAAAAAAAAAAAAAAAAAAAAAAAAAAAAAAAAAAAAAAAAAAAAAAAAAAAAAAAAAAAAAAAAAAAAAAAAAAAAAAAAAAAAAAAAAAAAAAAAAAAAAAAAAAAAAAAAAAAAAAAAAAAAAAAAAAAAAAAAAAAAAAAAAAAAAAAAAAAAAAAAAAAAAAAAAAAAAAAAAAAAAAAAAAAAAAAAAFezFlmhyLpF3lxksyKvKrJ05IsCgD6zF3l+kfXVO05tWmTtIktGviigjeYrsn2Ri4s8VOQ/E+TBIucV2a7I0yJeKICRZSf33YtcV+QxTXyc+l2RLxZ5fZHZQl4p0AILFDmoyMOa+MM0Ue4vcqB6fzwAgJdli5xS5O8a/jh1p3pfbvhDAOizUZE/aPgP1Nj8tsiGDb92AN1nP/PvVeQRVT9O3VBk+WZfPpDPLEUOLfJvVf9QlbH/66An/m8AqMouMV6i+o5Rlr+pd08TMJLsBr/Pq94PVX/s/+aPAABVLFjkJvkco/5ZZIfmSgFysBPzp+V38i9zSFMFAeicuYtcK99j1L+KbNVUQUAGn5D/yb/M5g3VBKBbjlMzxyi7oZB7lzAS9lRzJ3/LH4ss3EhlALrCZo/UeW/SoNg9AWs3UhkQZKaa/VCVObSJ4gB0xvVq/jhlc09WbaI4oGlvUu+ml6Y/VOVf14v4lwigA96gmOOU5Z4iy/mXCDRndfVOwlEfKst73KsE0AVfU+yx6pdFnu5eJdCAGapnyE/VfMe7UACtZ9NEH1X88erKInM41wq4emqRHyv+w2T5h3qP9QDARF6j+GNVmc871wq4sXnXFyr+Q9SftVwrBtB2+yr+ONWfXX3LBXwcofgPz9hs4VoxgLY7SfHHqf7YjdMbuVYM1My26I3+4IyXd3sWDaD1vqL449TY2Nbnz/EsGqjLSkX+qvgPzXjhSQAAkzlP8cep8XKzuIcJyc1b5KeK/7BMlG39SgfQAacp/jg1UU50rBuo7HTFf0gmy3p+pQPogI8p/jg1Wbb2Kx2Yvl0U/+GYLDaCeCG36gF0gU0sjT5WTRa7vLqiW/XANLxIOYZnTJafulUPoCsWV2+L3ujj1WT5ibgfAEnMpd4NKtEfikE50Kl+AN1yneKPV4NytFv1wBBsp73oD8Og2LO0bLABYCp2Uvwxa1DsV4p1vRoATIVN1ova4W+YnOHVAACdYzP471L8cWtQ7lRv7wKgcfMUuV3xH4JBeaTIc516AKCbsg4zG5uTvBoATOZ4xS/+qWQPrwYA6LSsQ4HGZkOvBgDjeaV6j9VFL/xB+WqRWX1aAKDjFi1yh+KPY4Nyd5H5nXoA/I85i/xM8Yt+UL6r3mUKAJguu3x4n+KPZ4NyrFcDgH57K36xD4o9J7uwVwMAjBSbc/JnxR/XJovdjL2KVwMA82zl3einjP1kt7hXAwCMJHvkLvuwsxvEJU84ukDxi3yy2LWwpd2qBzDKNi7yD8Uf5ybLzm7VY6S9UfGLe7LYT3QruVUPANIOij/WTZb7iyziVj1Gko37/ZXiF/dEsb/KX+NWPQD8n48r/pg3Wdg2GLV6v+IX9WR5p1/pjbOnLBZ8InMFvxagqqeqt5btptzZgl9LXew6uz1iHH3cm+wL0Qpu1WOkLFDkT4pf1BPlGL/SG2Ef1A8VubTI7/Xk+uy+houK7CX2M0BusxRZs8gh6m2o84D+dy3b7BD7JfErRd5V5JkxL7MW8xa5UfHHv4nyVb/SMUo+ofjFPFEuU3u/Vdj0runsOnaluNyBXGx2vt18dquGW8v2TdVOVKs1/5Jr8awi9yj+ODhRXuZXOkaBLXCbpR+9kMfLb9XOm12WKXK5qtd/cZElG37twFgv1/An/rGxXwZOKbJQw6+9DvZ4YNYN0b7lWDdGwMmKX8Tj5e9FXupYt5dNijyo+vpgP7EyBxwR7Of+A1Tvye/XRV7cZBE12U/xx8SJsolj3egwG4GZ9S/b3Rzr9mJ7jHv00/7PHRqsA7Cb4Ly+HNigsfWbK6UW1o9vKP64OF5sKuosfqWjq7J++7cdutq2oLeR7+ZJ/yqyRWPVYNSdIN/PuF12fHlj1dTDLkf+TvHHx/HCrwAYil1bflzxC3ds7i2ymGPdHuwnertk4d0bG1O6akM1YXS9Xc181h9S+2bbv0o5d0m1pxXa9qUJgbz/wp9uNvcs2sFL1OzeCbeod0c24MH2AvmLmlvPfyzynEYqq0/WYydPDmFKnqGcm16c6lizh+X15Oegm8j7mygOI8me3296Pd+mdj0dYPMBbEOy6OPl2FzrWTS643DFL9axsUf+5vcsumY2PMkOXBG9sueS5/YvESPmBYr7edsem53dv8TarK3efTnRx82xadt9FWjYfEUeVvxCHZtNPYuumR2obKpfZL+2dq8So+Z4xa7p4/xLrJVNKI0+bo7NBa4Vo/Xeq/hF2vZFe5Tie3aRe5UYJfaY232KX9dv9y60RvZlarzR3pGxXyWW8Swa7WV3if5c8Yu0P3YD3QzPomv2ZsX3rOzbnM61YnTY0yXRa9rymNr1pMuWiu/Z2BzuWjFay4ZvRC/OsdnTteJ6Lat6p/xVzQt8y8UIaerRv6nkdvW+XbfFFYrvWX/+rN6NisD/OF/xi7M/v1B7vsXatr0/UHzP+tO2RyaR12GKX8/9OdO33FrZbp9NzAEZJju5VozWWUr5xv626QR2hOL7NTa7uFaMUfJ5xa/nsWnT+OtsswF+5Fsu2ubjil+U/bFdrNoyuSrrIz/v9SwaI+U0xa/nsbHLbW3ZDdOmlzY5QGkqWcu1YrSG3eH7G8UvyDL2rPGarhXXZx71rklG92y8tOkbEnI7UfHrebzY47Zt+aJwgOL71Z9P+5aLtrD51dGLsT9f9S23Vkcrvl8ThdGfqEvm7W7b8mjgU9Ub0hXdrzI2pXQu14rRCqcqfjGWsW//bdkAxPYtz/jTf5kZfqVjxGym+PU8UexSwDP8Sq+VbWMe3a/+bOZbLrKzx0EyXZs637fc2thlkxsU36+J8ju/0jGCnqmcu9yV+YJf6bWyS4a2o2l0v8qc51susttO8YuwPy/2Lbc2dod9dK8my6f8SseIul7x63qi2B8n6/iVXqt9FN+vMrbl+9N9y0Vm0TPr+9OW8bULF/mT4vs1WV7mVj1G1bsVv64ny4+LzOZWfX1sUzMbxhPdrzLv9C0XWS2oXAMq1vMttzZHKr5Xk+V7fqVjhNlNbPcrfn1Plh3dqq/XxxTfqzKXO9eKpLZV/OIr8xO143GeZxd5VPH9miyv9Cq+A+wbov2CYxuiPKfIakVWeuLf9gcxd0VPblfFr+/Jcrd619mzW1x5vnzZ61jQt1xkdK7iF1+ZtoymPEXxvZosbbkZypvd3GqXQd5X5OQi1xW5q8g/NHn/7FqynURsENUXi+xVZN0iT2v01ec1h3Lf/Gr5gFv19Tpb8b0qw/bhI+YpynP3v20zOrdvubVYUfnGJffnNrVrk5Q62VMZ9m3enlf/tup/n+xxTxufahMzX6p2XGv2Yr+c2DPk0et9othlivndqq+PTRCN7lWZc51rRTIbKn7RlTnUuda62DfC6F5NFPsjajm/0tOyk9FB6n27b7Lf9iiXDYFa2b3CnNZR7w7y6HU/Ufb2K71WNym+Vxb7MvgU51qRyEmKX3RlVnCutQ5La/DPx1GxexJG6a5/u1fE/oC9RvG9t3xfvZ9QZ3esOaNtlHc2wB/Vjl8VMz1OvKFzrUjkLsUvOMu3neusiz1XH92r8WI/Tb/Fse5M7MS/VZGbFd/38XJHkZ3Vni2s67C/4vs+Ud7tWHdd7Oa7LDcVH+tcK5Kwn02jF1uZNszxXlR5PqRj05Ybnqp6uXrftKP7PZXYvRij9G3KbrKM7vl4uVPt+FUmy83Yt3gXihzeofjFZnmkyALOtdYh0+Su/ozCtL9Fipyl+F5PJ5eo93hh19mTAZcpvt/jZRPHuuvyBsX3yWKXc9qypwIqyPIX51nehdbA7va+S/G9GpvvqB3fbqqwjUrsWm50r6vEbq5qw69cVdkf8r9WfL/H5jLPomtif0Bl2R9gK+daEcyuo9od49ELzdKGa9dZ/jrvz8NFlvUsOpjdvHWK4vtcZy5UbwBRl62jfLtj2rfa5T2LrsmJiu+V5XPehSLWixS/yCx2Tf2pzrXW4euK79XYvM214lhLFfmh4nvskV8WeUFtncrpk4rv89gc4VpxPV6n+D5ZfuVdKGJlGeXZhm1/7XpYtkf/vuxacSwbjJJ9k6WqsUsCm9bVsIRslLINTIruc3/uUf7BTda3hxTfK8uSzrUi0OmKX2CWmd6F1mA3xfepP79Xd39G3qDI3xTf4yZiUwq3r6VrOdneCtmGBL3WteJ6ZLnZdXPvQhHnF4pfYG252/QHiu9Vf7r60/8WyrMxSpOfgTY8pz5d2XbMbMMeGVsqvk+WtkxmxZBs6ESGyV03eRdaA5tOGN2n/th18VldK45hN1lmu8zSZHap3sKU7FiT6XKOXXrJvkug/bqX4SbKq7wLRYzXKH5xWQ7xLrQGNks8uk/9eYVvuSHWKvJXxfc2MnY5oKs/ub5H8f3tz8a+5dYiw94A9pRR9nsmMA37Kn5xWV7lXWgNbERxdJ/KdPHGP3s060HF9zZDbCDWS6u1MyWbU/ETxfe3zEm+5dYiy1MUK3oXiuZ9TfELyw522XedstG/GX6Ks9g3xK7t8mePf9rY0ejeZsrdRRar0tSk3qj43paxpwGyX0azm2Gj+2SZ6V0ompfhBsDr3Kuszm62i+5TmS7u053lbudsuVLd++nVTri2N0J0b8u8xLfcyuyP4wz3xBzuXSiaZd+67dtk9MI6zLvQGpyh+D6V6dpPwzsovqeZc8D0W5vWOxXf1zL7ONdahxsV36eL3KtEo1ZW/KKytOGGJ/s5NrpPlhu8C23Y4kUeUHxfM8e+/a0y3QYnZXffZ3ki4HLnWuuQYSzwHe5VolFvVfyisizhXWhFmR7/e6tzrU27WPE9bUOuV/cuBXxM8X212LCpuZxrrWpHxffJfi3Ofq8WhnCg4hfV77yLrEGWrZLtV4gu7fZn27JG97RNec/02pzWs5TnxtqXO9dale0XEd0jywu9C0Vzzlb8grrYvcrqTlV8nyzHONfZJNvu9OeK72mbYtsgP206zU7sWsX31bKXd6EV2a8/GeZjdO0XyJGW4caSNtxZmuXxtLW9C23QuxTfzzbmI9NpdmLvVXxPLWd7F1qDDGPI93OvEo25T/ELaqZ7ldXMqxxPStjP/9mfV56qOdW79BPd0zbGxtd2afMn2/8jw2WAX3oXWoMMm7ad6F4lGmE3c2TYA2B170Irsm/d0T2yHO1daINmKr6fbc7ew7c8NZsDEt1TOxZm/8PKvn1H9+nr7lWiETZJLnox2YduXu9CK8ryvHJX5v7PUuTHiu9nm2O/nswxbOMTe7/ie2p5pXOdVW2m+B7d7F4lGrGu4hfTH9yrrM5uvIvu02PK/5jSVNkfMtH97EK2HLbxia2m+H5asu/CuJLie/SAe5VoxHaKX0zXu1dZ3TcU36c2jEqeqs8qvp9dyCXDNj4xe7TV7m2I7umR3oVWZCOBo3v0nydeB1ouw9a2bZhpf5fi+9SGUclTYb9iMPWvnth0wEWGa39qtudBdE/bcH37z4rv0wruVcJdhi0mP+leZTV2t3qGO5Q38S60IZl2getC3jlc+1M7WPH9vM29yuoybKX8Mvcq4e5zil9Iu7pXWc0MxffIsqh3oQ35tOJ72aV06TLA6xXfz7+6V1ldhtHZG7pXCXdfUfxC2sq9ymps173oHt3nXmVzbDOR6H52KXbdvCtPAyyt+H5aFvAutKKTFN+jrd2rhLsM19xe615lNW9WfI/acKPkVCyl+F52MV3ZGtpuBPy74vu5knehFR2q+B69271KuPuh4hfSGu5VVpNhTOlZ7lU2Y1vF97KL6dJQIJvGF93PV7tXWU2Gm7f3da8S7n6l+IW0rHuV1XxY8T36uHuVzThC8b3sYs4c5k1ILsOvkm9yr7KaDIPJ2rB/CwawncWiF9JC7lVWk+FJibe7V9mMyxXfyy7mlmHehOQyXN/e0b3KarZQfI/YD6ADMjyPPY97ldVkOCBt5F5lM2zqY3Qvuxi7bj7nEO9DZhkeBdzdvcpqNlB8jz7vXiXcPaz4hZT9DuZzFN+jV7lX6c8GAGXYeKqrWWbqb0Vq+yi+lwd6F1mRHQ+ie3Sae5Vw94hiF9G//Uus7DzFf9i6cJf3UorvY5ez1pTfidwybAr0Mfcqq3ml4nt0hneR8Bf9yM3j/iVWdoHiP2yrulfpL8M8hS6nK5Mi36H4Xh7qXmU1NoUvukfnuFcJd9E/ybZh6tZFiv+wrehepb8MU966nJ2m/lakNlPxvcw+ntwenY7u0dfcq4Sr2RS/iB5xr7K6DGM3l3Ov0t/Giu9jl9OVPQFsi+PoXh7lXmU1GbZOvtC9SriL3uTmn/4lVmYLPfrD9kL3Kv1trvg+djldmcy2i+J7mX3nzQyXAL7qXiXcRd8EaJnVvcpqzlZ8j9Zxr9JfhpHKXc77pv5WpLaX4nt5oHeRFa2n+B59yb1KuMswB+Ap7lVWY4+7RPfoDe5V+uMeAN/sPPW3IjW7Az+6lx90r7Ia24kvukfMAeiA3yt+Ic3nXmU1NvEqukfbuFfpj6cAfLP51N+K1I5XfC+z/5pio4qje3SCe5Vwl2EvgCXcq6zGrgdG9+g97lX6sx3WovvY5aw39bcitdMV38vtvYusKMOmWke6Vwl3typ+Ib3AvcpqPqD4HmW/KWkqFlR8H7uc7J+jqfqW4nu5gXuV1eym+B51ZYOykfYDxS+kV3oXWdFMxffofPcqm/Enxfeyi7F5Htn31Jiq+xTfz+xblH9U8T1iO+AOuFTxC2kz9yqrybDxxm3uVTbjesX3sov59TBvQmILK76XlhnehVb0GcX3aBf3KuHO5jlHL6TsW93aGN7oHv1D3djtLcMTFV3M5cO8CYmtrfhe2q8pc3sXWtGXFd+nrtx0OtKOVvxC2s+9ymoWUnyPLF0YB2zDaqL72MV8Ypg3ITEbZxzdy3vcq6zuWsX3aR33KuHOTr7RC+kk9yqr+7Pi+7SVe5X+Moww7WK6MCfC2KNl0b38tnuV1dkln+g+reReJdxl2HnrMvcqq7tR8X36rHuV/uZQbwOo6F52KfaT9cLDvAmJ/Uzx/fyCe5XV2KVAG6Ee3afFvAuFvwwDJW53r7K6cxXfp1+4V9mMDNsrdyk3Ddf+tJ6h+N1JLQc611mVbQwW3SN7n2b3LhT+1lL8YnqsyCzehVZ0oOL7ZJnhXGcTMlzn7VIOGK79aWXYBdDyJu9CK1pf8T36vXuVaIT91R29mCxLehda0aaK75FlO+9CG2BrLnoXyi6lCztFGrvEFd1Ly/LehVaUYbfE77hXiUbYN+8MOwK+3rvQipZVfI8sp3sX2pArFd/LLqQrl4XsOHSn4vv5tyKzOdda1bGK7xM7AXZIhhtvPuBeZTW2ZfHDiu/TX4rM61xrE7L83Nv2ZN+1bqoyPP9vucG70Bpcrfg+fcy9SjTmYsUvqNPcq6zuKsX3ybK1d6ENmEs5Rr62OY8XWXTYxif1acX303Ksd6E1yPC52cm9SjTmU4pfUDe6V1ndwYrvk+US70IbkmGXxTbnjOFbnpI91pZlj4i3Otda1TMV3yPLq70LRXP2UPyCelT5R92+TvF9sthY4Gc419oEqyHD/SdtjD2G1ZXd/zZRfD/LPNu51qqyHIOW8S4UzcmyqF7iXWhFCyjP3et7OtfalOMU38s25svTaXZS5ym+n5bfeBdag4MU3ye7D2lW70LRnMUVv6gs7/cutAbfV3yfLL9V/l9MpuJZ6t15Hd3PNsX+CF15Os1OaAXl+aP6FOda62CbPkX36Xr3KtG4DNfgznGvsros9wFYdnCutSn7K76XbcpnptfmlDLtDrmFc61V2eOJGZ5E+px3oWjeNYpfWHd7F1mDLI8rWe5Q/meWp8KeCLBx0NH9bEPuL/L06bU5HRv+9XfF99Riv0Is4ltuZasovk+W3bwLRfOyXItdyrnOqmz+dYadAcu8xbfcxmyo+F62IW+fboMTOl7x/SzzPeda6/A+xffJwhMAHZRhvKRlZ+9Ca2BTsKL7VObH6savAMZ+2o7uZ+Z8Xfn3zJgq+/af6QmQfX3LrcVFiu+ThV0AO2hVxS8sy1e8C61Bln0Byrzbt9zG2ITD2xTfz4y5V9149LOUYXfN/qzgW25ldsOv3X0f3adfexeKGPYtMsMCe0i9PeMzm1s5bsYp84C6MxHO/hDlqYD/jV2f3qBKU5Oxn5Cje9qfNmynvK7i+2Q5y7tQxMky6vZl3oXWwKawRfepPyf7ltuozZVjX/gs6crMB2PfZG9VfE/7s49rxfU4RPF9srzPu1DE+ajiF5jl496F1iDbTWt2wmzDH05Tlelxy8h07ZGrDym+p2M/N22YaneL4ntlebF3oYiT5aR2u3ehNbBLJr9TfK/689Mi83gW3SC72e1Exfc0Mhcq/+WwYayofJd3rnStuB52f0J0nyz23nVpPWKMBZXnp9cXOtdahyy/mPSnS5cC7I+Azyq+pxG5tMhTqrcwDavlR4rv69hs5Vl0TT6s+D5ZrvYuFPGy/NT0Ue9Ca2A/HWYZY9qfbT2Lbpj90nKK4nvaZGy3xy6d/M3nFd/XsbGbZ+f2LLomWf5wOti7UMQ7UvELzfJz70JrYgfr6F6NjT3Nkf2xpmHYLwEfUXxfm4hd8+/az6z2B2l0X8fLUZ5F1+Q5iu9TmVc414oEsuwMaFnNudY6vEbxfRovN6v3XH2X7FjkccX31iN26e1D9bUqjZWU4/HisbEttZfyK7s2Wf7wbcPj2aiB/SSWZULXCc611iXLT3Rjc4V6c/a7xP4otD0QontbZ2zIz4Z1NimJJYrcpfj+jpc2PM9uW+7epfheWc7zLRWZXKb4BWd5UO24q9125Yvu1USxscVd27t7gSJfVXxv64j9kfbMetuTwsLqPZUS3d+JsqZf6bVZX/F9KvMu51qRyB6KX3BltnGutQ72Lfs3iu/VRDnWr/QwNv44uq9VYz/7L153YxKwS0/fVXx/J8pVfqXX6kzF96rMcs61IpHnK37Blbnauda6vFPxvZos+/mVHiLzCWaYdG1rVbtObJsWRfd1srThZraFijyq+F5Z7nCuFQnZXfjRC6/Mys611sEOfHcqvleTpStjPO3bSJZ5FVXzw5p7E8me1jhF8T2dLFe4VV+vvRXfqzKHOteKhGwcb/TCK3OSc611ybKl8kT5p7qxl/dBiu9lnVmp3vaEOUzxvRyUtd2qr499mcg0ZfQlvuUioyzbA1seUzv2oLYPbraNTsbmHvV+Xmwr+5b5K8X3sc4cUmuHYtgfltl/lWnLnexbK75XZWz731l8y0VWv1T8AizzYeda65JlP4XJ8im36v29XPH9qzu/Vbuf1LCphXaiiO7jZLH5Ec/1akDNvq/4fpU50rlWJGbXfqIXYJk/qD3jUW2Oe3S/Jsvf1Y4hKOPp6t4Ar6qzSQ3bVfH9G5S2nMjWVXyv+vNS33KRmW39GL0A+7Orb7m1sacobNJYdL8myyfdqvdjfwD+WfG988gpNfapSRl3xRyb+9Tb6KwNvqn4fpWxX6b4+X/EZbqmbdev2zAYyGS/Iepute9n5zcpvm9eeVjtWdv97Np/dO8GZTu36uu1nuJ71R/u/oc+qPiF2J89fMutjY1Uzj6y9kVu1fu4QPE988yW9bWqMTauO7pvk8Ue+2vLt9hrFN+v/jzPtVq0wjPUu2YcvRjL2M95T3WtuD6ZRnmOlzaN93y6cq1Dj1xSW7eac5Pi+zZR7Omh5f1Kr5XdAxLdr/5827dctEm2b177+pZbq1MU36+Jcoxj3XV7j+L75R27b+QZdTWsAXb9P/O9Lnv5lV4ruxT3A8X3qz87uVaMVtlE8QuyP7a9aFtmqNuvFbcrvmfjpQ07opWuV3y/msj762pYA2w2R3S/Jsq16v2B0gYzFd+v/vy1yHyuFaNVbMCNPYYXvTD7c7JrxfWyR2lsCl90z8bmQs+ia2Q/40b3qqncWFPPmrCC4vs1Xh4osqRj3XWyGz+zPUVxqmfBaKdMo4Et/1JvWmFbfETxPRubc1wrrs/Biu9Vk3l+PW1zN0PxvRovb/UsumYHKL5fY7OWa8VopSWU7yYse2a2LXf4zq7ezobRPevP8a4V18Pe3zsV36sm05bHrxZQfK/G5jOuFddrhno/t0f3rD/fc60YrXa64hfo2LzNteJ62TVTG64R3bMybRisZFu3Rvep6bRpNLDN5ojuVxm7T2Qu33JrdZHiezY2bfr1BA1bXfELdGzuVzs2CirZzlr2eFJ03/6jduzyZTtBRvcpIm0ZDXyx4ntluVftue5v3qL4no3NXer9UglMyO6ujV6oY3Oma8X1y7BtsM1TyP5h7/Lo30E5tXr7GrGb4ntllybX8y60Rnbp5PeK79vY7OlZNLphM8Uv1PGygWfRDmwWf2S/Pu1fYmVvVvy6ioo96jpv9Ra6e7bitwHe0b3Ketl9CtHra7z1toBn0egGe7Y243Ptdt20Tfvc2zXeLyumV3bAXtG/xMqyDaBqOltXb2EjIq9lf6yB+upkX1Si/2AaL23ZLREJ2OYa0Qt2vJzrWbQD2y/gO2q+T19qoriEhkSlAAAVZElEQVSKFlG+p06azjcqd7EZayqmP2eoPU8BGVvT2eapWB5RuyZQIpj9CvBzxS/c8bK9X9kuFi5ys5rrz0Nqx81SozD6d1BseNQzqzayIaep2d5cpnbd8W/OV/yaGi9HeRaNbsr6K4Btq7qsY90e7CmGprZdbsuOc6My+ndQdq/ayIbY5bemJtpdpd6vZ22ys+LX0nixb/9t+SMTiWS9F8Byg9r37cAGLXlvH/zRxqqp5jmKX0NZclPFXjbJJnPazWSe/bBd6tqyG2hp5SJ/U/xaGi9c+8e0bav4BTxRTnKs28uMIrfJpx9HqD3XS+0Plej1kykvqNbORtkW2F5/BNgjyPM3V0otFizyS8WvofHCt39UYr8C/EzxC3mitHFLS7tR6ErV1wMbOvSuRiuoZhRH/w7KYZU62jwbGFb3c+52g+9TmiyiBvakT8Zpf2UO9ysdo8Iea4leyBPFTn4v9ivdjR049lDvfoYq9dsTBi9s+LVXNYqjfwfFrq23ZWvbkj1TXsfz7nbTql0/b8uvV/32V/zamSg2CIzn/lELe1wpekFPlN+ovT9z2c2Bh6i3vekwNdt10k3VzoNmptG/jyd4DWXWr9LUQOsUuUbD12vXzG1Y1qKNv+J62OfPdiyNXjcTpU2/CiI527404373ZX6o9t041G/OIhup97jOder9vFo+I2+/EtgTBF9RbyzrckGvsQ72E++Dil8vlkeL7JfgdZQ5rUJfM7DBUwep93SH9Xa8Gm1dn1dkZpH5Yl5mLdZQ3pv+LD9V/jHgaBkbLRu9sCeLXYtr28+ooybTBilnK9cwIts2ts1/xPazk88yRVZT7xcCu8mxK4NollLOYT/9eZ1X8RhddrDM8u1tonzWrXrU4ULFr5EyGyV8TW0ZDTyq7FeLJod6TSdXuFWPkZdhZ7BB2c+telSR6du2bS07xxOvK9OGRJdOr7VogG3c9C3Fr5HJYjdFr+DVAMDuXv+u4hf6oOzl1QBM2/sUvy7KHNP3ujJtSWw3lS0xfGvhzO7RuVjx62NQDvBqAFCyqVdZvslNFNuNi7tgc/m+4tdFmdXHvLZMTybsMWRf4ct+KWrDrpU2YKxtcxTQUjZgInrBD4p9m9reqX4Mx36WjF4PZW4d5/Vlmk3woyH6Cl92U/FZil8Tg2JfeF7h1APgSeZR3vGX/bFHFzd36gGmzvZ0j14LZfYZ5/XZPIVfJXhtZVaeemvhxNaE3VQcvRamkjaORUfL2aMm0Qt/KrF52G2bltcldt/IXYpfBxb7pjRjgteZaX8CRrjG+4Di18FUYo8kLuTUA2BSma6dThb72ZfrYzHWUfz7X+aaSV7n8gleX5m7xUyLSDa/IPt9TmXe4NQDYCAbXPILxX8IppJ9nXqAyX1O8e99mR0HvNbrE7zGMq8Z8Frhw376z7QOJsuJTj0ApszuqG7DX8u26QibYzQr0yN2Np520Pv/3gSvs8wXBrxW+Hij4t/7qeQOdWdyJFruAMV/IKaS3b0agHG9VfHveZmzp/B6Mw0r6tJo4Da5WvHv/aDYGm3jLqjoKJv9bVvTRn8wBuVGrwZgXJn2Si9H/w6S6Znvbaf4mlGPJZV7h78yTDtFOssq/14BlrZuHdw2ts1rlm/Tf9T/jf4dJNNo4Mum+JpRj50U/54PyjXiBlEktYl6j1pFf0gmy5vcqke/rKN/B8l034LNsVh8iNeOak5W/Hs+WWw75a7sqoiO+rjiPyiThacBmpFp9O+w10szPd6655CvHdOX+TKm/Zq2tl/pQD1s8Ms3FP+BmSjH+5WOJzxP8e9zmdum8fozjQa+ZRqvH9OTaRrk2LzPsW6gVnY39W8U/6EZL6f6lY0nZPoVaLzRv4PYs+B3JnjtZZhk2Yx7FP9ej5czPYsGPKyh3v7U0R+esWF4hi/7BejXin+fLXZH94xp1nFwgtdf5pPTrAHDuVPx7/XY2C9APA6KVtpG+W4KPNi1YrxS8e9xmasr1JFpNLDd/MWd3/5uUPx73R97emVp14oBZ/sr/oPUn5m+5Y68zyv+PS4zaPTvIJlGwr62Yi0Y7AzFv89lbBOzl/iWCzTDfnaP/kCVWd651lFmj9BlmQUxldG/g7wnQR1lvlixFgyWZRS0XbrazLlWoDE2hOUKxX+w7Nr0LM61jrItFP8elzmrhnqerjzDjBgN7O+5in+fLXt4Fwo0bX71bmiJ/GAd5l7laPu64g+eZTasqabzE9RSZruaasLEoudXnOBfIhDDZm3fpZgP1j/EDTWeFlOvx9EnScswo38HyTQa+PKaasLE7MblqPf3XHGzJzpuuSJ3q/kP18lNFDfCdlX8CbLMMKN/B8k2GniJGmvDk9nGZj9V8++t/Xo2ZwP1AeFWLHKvmvtw2QF8sUYqG10/UPwJsszqNdf22QQ1lflAzbXhydZVs7sCXllk7kYqA5JYucj9auYDtkVDNY0q+4Mu+sRY5mcO9b08QV1lbnaoD092iJp5P23/AW7uxEiy51wflu8H7KDGqhldn1D8ibHM3g712ZMjv0xQWxlGA/uza/F2Td7zffxRkYWaKgjIyHa4ekA+H7CjxWN/3mz0b5Z9H+xn22c71ZlpNPARTjXif9n9H1+Tz3v4vSILN1cKkNdKRX6u+j5c9uz2bo1WMLrsemn0CbHM1Y51ZnlG3MJo4OZYnw9XvSPNbeLgPE0WAWRn18GOU+9O5yofrhvV24gIzbCnK6JPiGV2cK71ewlqLMNo4Gatr97W0lX/cNu66RcOtMnz1Rt7+riG+3DZzVHbim9GTbJvMQ8p/mRosdnp8/mWm2o08OnOteLJ7DG9nTT8Y4J2icye3uBmP2CK7OYY28zFfi6zv7zH/kHwB/UenzmwyCoxL3Hkban4E2GZOkb/DpJtNPDTfMvFJOyYs0+Ri4rcUeQv6r0vf1Nv2JmNPrcbkO0ep1ljXiLQLTZOeEExMCOLixV/IiyzgXOtpQsarGlQGA0MAGjcourm6N9BGA0MABhp71f8CbDM0c619ss0Gtgee1zSt1wAAP6XPW0RfQIss5pzrWNlGg28l3OtAAD8V9dH/w6SaTTwT51rBQDgv5qakz6VfMi51vFkGw38It9yAQDINfrXprMt5VrtxBgNDAAYKesp/oRX5irnWifzHNU7HrZKbCbG7L7lAgBG3SmKP+GVeZtzrYNcr/gelHmdc60AgBE2d5EHFX+yszyq3mCoSJlGA5/hXCsAYIRtpfgTXZkznWudChtXPeyeFV6xvRCi/yACAHTUJYo/0ZVpavTvIOcrvhdlZjrXCgAYQdlG/2a56e1Niu9HmSucawUAjKDdFX+CK3OUc63DYDQwAKDTblL8Ca7Mqs61DivTaOAPOtcKABghoz76dxBGAwMAOulQxZ/YykSM/h0k22jgVXzLBQCMgkyjfzNf4z5I8f0pc6RzrQCAEfAqxZ/QylzpXGsVyynPaOBMT0kAAFrqVMWf0Mp8U72dCLPmoQQ9KvP6cd5LAACmZJ4iDyv+ZEaGz5fGeT8BAJiSrRV/IiPTC6OBAQDT9g3Fn8jI9LP9k95RAAAGWEx5Rv+S6SXzTZMAgKQyjf4l00vmxyYBAEllGv1Lpp+Mg5MAAEmtpPgTF6knGUcnAwCSOkzxJy5SX7JtngQASMhG//5W8SctUl8ybZ8MAEjq1Yo/YZF6Y6OB5xAAAJM4TfEnLFJ/NhAAABOYV4z+7WrOFAAAE9hG8Scq4pNHxWhgAMAELlX8iYr45W0CAGCMZxb5p+JPUsQvVwkAgDH2UPwJivjm30WWEgAAfX6k+BMU8c/eAgDgCYz+HZ0wGhgA8F+HK/7ERJrLagIAjDxG/45ejhYAYOStr/gTEmk2jAYGAOgLij8hkeazoQAAI8tG//5F8Scj0nzOEgBgZG2r+BMRiYmNBl5AAICRdJniT0QkLjsIADByFhejf0c9VwsAMHL2VPwJiMTGRgMvLQDASPmx4k9AJD77CAAwMlZW/ImnzO+LnDNiuTBB38vcKgDAyPik4k88ZfZ0rjWrnyu+92VWd64VAJCAjf79neJPOpZ/FXmWb7lpfVjx/S9zjHOtAIAEXqP4E06Zy5xrzWwp9W7Ci34PLPeK0cAA0HlfVPwJp8y2zrVm9y3FvwdlNnKuFQAQKNPo378Weapvuentovj3oczZzrUCAAJtp/gTTZkvONfaBgsWeUzx74WF0cAA0GGXK/5EU2Z951rb4suKfy/K7OhcKwAgQKbRv3cXmc233NZ4o+LfjzLX+JYKAIjwAcWfYMoc7lxrm9jd9/cp/j2xMBoYADoo0+jflZ1rbZsTFP+elNnXuVYAQINepPgTS5mfONfaRmsq/n0pc7tzrQCABh2h+BNLmT2ca22rTKOBX+xcKwCgAdlG/y7hW25r7a/496fMsc61AgAa8FrFn1DKXOpca5vNUJ7RwH8qMqdvuQAAb6cr/oRSZhvnWtvuOsW/R2Xe4FwrAMARo3/bZWfFv09lznGuFQDgaKbiTyRlTnOutQvmL/KI4t8rC6OBAaDFrlD8iaTMq51r7YpzFf9eldnJuVYAgANG/7bTxop/v8p807lWAICDvRR/AilzmHOtXZJtNPAyvuUCAOp2s+JPIGUY/Tuc4xT/npXZz7lWAECNMo3+vcm51i5aQ/HvWxkbDTyLb7kAgLpkGv27u3OtXXWr4t+7Mms41woAqIHdbHeP4k8aFkb/Tp/99B79/pU5zrlWAEANXqf4E0aZbzjX2mUzxGhgAMAQzlD8CaPM1s61dp09hhf9HpbZ2LlWAEAFjP7tFhvEE/0+ljnXuVYAQAUzFX+iKHOqb6kjYT4xGhgAMAWZRv9uXmRBUjkXJHgvy9hmRQCAZOxu+yyjf0k3c60AAOl8UPEnCNLtMBoYABLKNPqXdDf7CwCQxiqKPzGQ0cgvxGhgAEjjSMWfGMjo5CUCAISbXXlG/5LRyPECAIR7veJPCGS0cn+RuQQACPUlxZ8QyOjljQIAhHlakb8p/mRARi9fFgAgzPaKPxGQ0czjRRYWACDElYo/EZDRDaOBASAAo39JdK4TAKBxH1L8CYCMdmw08LICADTqJ4o/ARDyYQEAGrOq4g/8hFgYDQwADTpK8Qd+QsqsKQCAO0b/kmw5QQAAdxso/oBPSH8YDQwADThT8Qd8QsZmEwEA3MwnRv+SnPmKAABu3qb4Az0h44XRwADg6CrFH+gJmSi7CABQO0b/kuz5lgAAtdtb8Qd4QgbluQIA1IrRv6QNOUAAgNqspvgDOyFTyR1iNDAA1OZoxR/YCZlq1hIAoDJG/5K25VMCAFS2oeIP6IQME0YDA0ANMo3+/USRV5O0ucbxvR82mwoAMG2ZRv8y6S2/LRW/Tsp81blWAOi0HRR/IC/DrPf85i7yoOLXCn8wAkBFVyv+QF6G3d7a4WTFr5Uy73CuFQA66dlF/qX4g7iFm7raY13Fr5cy33auFQA6aR/FH8DLnOBcK+oza5HfKH7NlGE0MAAM6RbFH7zLrOlcK+plT2tEr5kyB/qWCgDdsrriD9xlfiFGu7bN8xS/bsrcKdYPAEzZMYo/cJf5sHOt8PFDxa+dMi91rhUAOsFG//5B8Qdty7+LLONbLpzspvj1U+bTzrUCQCdspPgDdpnrnGuFn0WL/EPxa8jygHiKBAAGOlvxB+wyOzvXCl8XK34NldnMuVYAaDUb/fuI4g/WFia5tV+m0cBfc64VAFptR8UfqMuc61wr/GUbDfx033IBoL2uUfyBuszGvqWiIZlGA7/TuVYAaKVMo3//VGRO33LRkEyjgb/jXCsAtNK+ij9AlznOuVY0J9to4OV9ywWA9rlV8QfnMms414pmZRoN/BHnWgGgVV6s+ANzmdvF6NauYTQwACR1rOIPzGX2c64VMTKNBn6Zc60A0ArZRv8u7VsugmQaDXyic60A0AqZRv9+07lWxGE0MAAkk2n0707OtSJWptHAmzvXCgCpZRr9+2iRBXzLRbBMo4HPc64VAFKzb9zRB+IyZzvXiniZRgP/XYwGBjDC7Jp79IG4zEbOtSKHTKOB3+VcKwCkNEN5Rv/eW2QO33KRRKbRwN91rhUAUrLn7aMPwGWOca4VeTAaGACCZRr9u7pzrcgl02jgg5xrBYBUbNZ+9IG3zG3OtSKfTKOB7xKjgQGMENttL/rAW2Yf51qRU6bRwGs71woAKdjNdnbTXfRB12I3Ic7wLRdJ7ar49Vfms861AkAKr1X8AbfM1c61Iq9Mo4FtNsHcvuUCQLxMO//t4Fwrcvu64tdgmTc41woA4W5Q/MHWYiOI53OuFbltofh1WOZTzrUCQLi/Kv5gaznTu1CkZz+7P6T4tWj5gXOtABDKvnFHH2jLbOhcK9ohy2jge7wLBYBIiyj+QGv5oxj9i54so4H/4l0oAESy7XajD7SWo70LRWvYaOBfK35N2iOpDAQC0Gl28130wXZV9yrRJhlGA//BvUoACPYjxR5of+ZfIlomw2jga92rBIBgNvUs8kD7If8S0UJ2F37kujzRv0QAiLWp4g6ydp11Sf8S0UK7KfYPgNf5lwgAsezZ6wcUc5C9pIH60E6LKW40sD2VMrt/iQAQ73DxLQv5nK+YdfnxJooDgAxsI5aH1exB9rpGKkObrafmT/53F3laE8UBQBZNbsf6eJFVmikLLXe5mv0DYMtmygKAPGwAy6Vq5iC7V0M1of2WVnP3qBzZUE0AkM5C6j2X73mQPU1MWMNwNi7yb/muy3PU+yMYAEbW4vL7I+CLRWZrrhR0yO7y+SPA/s/DxF3/APD/2R4B9oheXQfZfxbZX3zzRzVbqXf/SF3r8t4ib2y0AgBoATtZv1vVr7/+pMhaDb92dNcaRb6vamvSnvM/UL3tsAEAE7D7Ag5W76A5zEH2h0W2Ez/5o352rf7tRW7V1Nej/XJwXpHNi8zV/EsGgPaas8hrixyl3jP896g3ytcOro8V+VWRC4rsXeQFQa8Ro2e1Ioeq9wTLneqtSdvh8k9FbilyRpHtiywc9PoAAAAAAAAAAAAAAAAAAAAAAAAAAAAAAAAAAAAAAAAAAAAAAAAAAAAAAAAAAAAAAAAAAAAAAAAAAAAAAAAAAAAAAAAAAAAAAAAAAAAAAAAAAAAAAAAAAAAAAAAAAAAAAAAAAAAAAAAAAAAAAAAAAAAAAAAAAAAAAAAAAAAAAAAAAAAAAAAAAAAAAAAAAAAAAAAAAAAAAAAAAAAAAAAAAAAAAAAAAAAAAAAAAAAAAAAAAAAAAAAAAAAAAAAAAAAAAAAAAAAAAAAAAAAAAAAAAAAAAAAAAAAAAAAAAAAAAJ32/wC5Eq0ujt7gMAAAAABJRU5ErkJggg==;" vertex="1" parent="1">
          <mxGeometry x="415" y="110" width="182" height="182" as="geometry" />
        </mxCell>
        <mxCell id="9z0CNP4QUnbibLwf2Hai-4" value="" style="shape=image;verticalLabelPosition=bottom;labelBackgroundColor=default;verticalAlign=top;aspect=fixed;imageAspect=0;image=data:image/svg+xml,PHN2ZyB4bWxucz0iaHR0cDovL3d3dy53My5vcmcvMjAwMC9zdmciIHZpZXdCb3g9IjAgMCAyNCAyNCIgaGVpZ2h0PSI4MDBweCIgd2lkdGg9IjgwMHB4Ij48cGF0aCBkPSJNMTIgOS4xMzdhNy4wNjIgNy4wNjIgMCAwIDEgNC45NDQgMi4wMDhsLS42OTYuNzE4YTYuMDkyIDYuMDkyIDAgMCAwLTguNDk2IDBsLS42OTYtLjcxOEE3LjA2MiA3LjA2MiAwIDAgMSAxMiA5LjEzN3ptNy43NzgtLjgxNWExMS4wMTIgMTEuMDEyIDAgMCAwLTE1LjU1NiAwbC43MDcuNzA3YTEwLjAxMSAxMC4wMTEgMCAwIDEgMTQuMTQyIDB6TTEuMzk0IDUuNDk0TDIuMSA2LjJhMTQuMDE3IDE0LjAxNyAwIDAgMSAxOS43OTggMGwuNzA3LS43MDdhMTUuMDE2IDE1LjAxNiAwIDAgMC0yMS4yMTIgMHpNMjEgMTkuMDJWMjJIM3YtMi45OEEzLjAyNCAzLjAyNCAwIDAgMSA2LjAyIDE2SDlhMyAzIDAgMCAxIDYgMGgyLjk4QTMuMDI0IDMuMDI0IDAgMCAxIDIxIDE5LjAyem0tMSAwQTIuMDIyIDIuMDIyIDAgMCAwIDE3Ljk4IDE3SDYuMDJBMi4wMjIgMi4wMjIgMCAwIDAgNCAxOS4wMlYyMWgxNnpNMTAgMTZoNGEyIDIgMCAwIDAtNCAweiIvPjxwYXRoIGQ9Ik0wIDBoMjR2MjRIMHoiIGZpbGw9Im5vbmUiLz48L3N2Zz4=;" vertex="1" parent="1">
          <mxGeometry x="306" y="397.77" width="86.12" height="86.12" as="geometry" />
        </mxCell>
        <mxCell id="9z0CNP4QUnbibLwf2Hai-5" value="" style="shape=image;verticalLabelPosition=bottom;labelBackgroundColor=default;verticalAlign=top;aspect=fixed;imageAspect=0;image=data:image/svg+xml,PHN2ZyB4bWxucz0iaHR0cDovL3d3dy53My5vcmcvMjAwMC9zdmciIHByZXNlcnZlQXNwZWN0UmF0aW89InhNaWRZTWlkIG1lZXQiIHZpZXdCb3g9IjM1NS41IDEwNC4zODA4NDQxMTYyMTA5NCA1NjkgMTA3MS4xMzczMjkxMDE1NjI1IiBoZWlnaHQ9IjEwNzEuMTM3MzI5MTAxNTYyNSIgd2lkdGg9IjU2OSIgdmVyc2lvbj0iMS4wIj4mI3hhOzxtZXRhZGF0YT4mI3hhO0NyZWF0ZWQgYnkgcG90cmFjZSAxLjE1LCB3cml0dGVuIGJ5IFBldGVyIFNlbGluZ2VyIDIwMDEtMjAxNyYjeGE7PC9tZXRhZGF0YT4mI3hhOzxnIHN0cm9rZT0ibm9uZSIgZmlsbD0iIzAwMDAwMCIgdHJhbnNmb3JtPSJ0cmFuc2xhdGUoMC4wMDAwMDAsMTI4MC4wMDAwMDApIHNjYWxlKDAuMTAwMDAwLC0wLjEwMDAwMCkiPiYjeGE7PHBhdGggZD0iTTQyMDIgMTE3NDkgYy0xNzEgLTIyIC0zMDAgLTg3IC00MjggLTIxNCAtNzUgLTc0IC05OSAtMTA2IC0xMzYmIzEwOy0xODIgLTI2IC01MCAtNTUgLTEyNyAtNjUgLTE3MCAtMTcgLTc1IC0xOCAtMjU3IC0xOCAtNDc4OCAwIC00NDg3IDEgLTQ3MTMmIzEwOzE4IC00NzgwIDEwIC0zOCAzOCAtMTEzIDY0IC0xNjUgMzkgLTgwIDU5IC0xMDggMTM3IC0xODUgNzYgLTc2IDEwNiAtOTkgMTg2JiMxMDstMTM4IDE4MyAtOTAgLTUyIC04MiAyNDQwIC04MiAyNDkyIDAgMjI1NyAtOCAyNDQwIDgyIDgwIDM5IDExMCA2MiAxODYgMTM4JiMxMDs3OCA3NyA5OCAxMDUgMTM3IDE4NSAyNiA1MiA1NCAxMjcgNjQgMTY1IDE3IDY3IDE4IDI5MyAxOCA0Nzg1IDAgNDQ5MiAtMSYjMTA7NDcxOCAtMTggNDc4NSAtMTAgMzkgLTM4IDExMyAtNjQgMTY1IC0zOSA4MCAtNTkgMTA4IC0xMzcgMTg1IC0xMDMgMTAzIC0xOTkmIzEwOzE2MCAtMzMzIDE5OCBsLTc4IDIyIC0yMTc1IDEgYy0xMTk2IDEgLTIyMDMgLTIgLTIyMzggLTd6IG0yNjg2IC03MDEgYzE4IC0xOCYjMTA7MTUgLTk0IC00IC0xMTIgLTE0IC0xNCAtNzEgLTE2IC00ODQgLTE2IC00MTMgMCAtNDcwIDIgLTQ4NCAxNiAtMTkgMTggLTIyIDk0JiMxMDstNCAxMTIgMTcgMTcgOTU5IDE3IDk3NiAweiBtMTg1MiAtNDY0OCBsMCAtMzgxMCAtMjM0MCAwIC0yMzQwIDAgMCAzODEwIDAmIzEwOzM4MTAgMjM0MCAwIDIzNDAgMCAwIC0zODEweiBtLTIyNzAgLTQxNDEgYzE5NiAtMzEgMzQ5IC0xODUgMzgyIC0zODMgMzcgLTIyNSYjMTA7LTExMyAtNDUyIC0zMzcgLTUxMSAtMjYwIC02NyAtNTIwIDEwMyAtNTY2IDM3MSAtNDEgMjM5IDEzMiA0ODMgMzcxIDUyMyA3NiYjMTA7MTIgNzcgMTIgMTUwIDB6Ii8+JiN4YTs8L2c+JiN4YTs8L3N2Zz4=;" vertex="1" parent="1">
          <mxGeometry x="756" y="249.99999999999994" width="49" height="92.23" as="geometry" />
        </mxCell>
        <mxCell id="9z0CNP4QUnbibLwf2Hai-6" value="" style="shape=image;verticalLabelPosition=bottom;labelBackgroundColor=default;verticalAlign=top;aspect=fixed;imageAspect=0;image=data:image/png,iVBORw0KGgoAAAANSUhEUgAAAMgAAADICAYAAACtWK6eAAAABHNCSVQICAgIfAhkiAAAAAlwSFlzAAALEwAACxMBAJqcGAAAH/hJREFUeJztnXe4XUW5xn8ph4QQiKkQARNApBcJCgLSBCzgFbhyuaIICigiTS9NLkoTVEQELOhFqSKKgIIiRSSIqIAISC+hBRIISaQkpCfr/vHtbY7Hs2beb6212znzPs88yXP23u+amTXfWjNfhYSEhISEhISEhISEhISEhISEhISEhISEhISEhISEhISEhISEhISEhISEhISEhIS2w4BWd6CPYziwFjCx9u+awJhaGw2MAoYBKwBDav8CLAIW1v6dB/wDmA3MqrWpwHO19iwwt/FD6Z9IAlId1gO2BDattU2A1Zt07WnAg93a34AnmnTtPo0kIMUwEHgXsCOwLbAN9kZoJ8wC/gz8CfgD8FdgWUt7lNCnMQbYH/gptviyDmsza33fvzaWhITSGAUcDPwOWELrF3lVbTFwC3AQMLKy2UroFxgEfBi4Djskt3oxN7otqo11j9rYExJ6xerAacCLtH7Rtqq9UJuDZikXEjoAmwOX0z/eFp63ymXAZiXmNaHDsT12tmj1Ymz3dguwXcE5TuhAbE0SjCLtZuDdBea7o9Gf7CDvAM7GDuDNxMvAM5jF+znMCj6L5ZbxN7AtTb2BWdTrbQRmYxmNqWffxnLr/DrAqk0ZxXJcBxwLPNXk6yY0CCOAc2jOGWMKtnc/CtiZ5tgbxtSudXTt2k83cHz1thD4JrBKE8aX0EAcALxC4xbKs8D3gb1p/pM8hNWA/wQuwN5ajRr/DMzwmNBhWAs7XDZiUdwN/A/me9UpWB/r8900Zk5uAiY0bTQJhTEA2968SbUL4FHgOGzf3+lYCzgeeIxq52gucAT961zbURhPtW+NecCl9G0V53bYGOdR7dtktWYOopHoK9L+EeDHVONROwP4HrZ/n1UBX08MAsayPCZkJLAiy7VWsFyjNR94leUar5nA0gb0aQzwOeBwYFwFfDMxH7brK+BKKIHBwLeo5sn3LHAIFrhUBUZh7vBHAhcCt2Hq3sUl+ri4xnEb8H817h2pzuFwKPAZqjvYn0Xy72oZxgGTKX8TXwAOBbpK9uftmIBdgtkIqtzfK+1J4GLsyb1OybGsgL1RqvBL+z3Jvb7p2AJb2GVu3BzgS9hTswgGA7sB59MagVAE5jxg11pfi2AocCI2V2X6MhXzeUtoAvbANCZFb9Yy7Ek7vsC1B2Bbmh9i++xWC4HaZtb6vCPFzp3jsTfjshJ9mAN8sMC1Exw4nHKBS48D7y1w3VWBEzBLeasXe9n2FKbmLWLY3AGLdS967SXY1i2hATiD4jdmce333gP4JpgadGGJa7drW4i9FTZ2zslQ4EzKKRtOc14zIYABwLkUvxlTgK2c19wauLHENTut3Vhwjsr4fX3Leb2EXjAQU2cWvQkXY7mpVLwTuKHE9Tq9/aY2BypWxt5CRa/3Q+weJxTAAMx+UGTi5wMHOq5VxSG0r7S6EsNjDf8UNudFhaRt0c6W9PMwQ5gXz2GerPcJ3x2MOfGdhO9NUxbzgZcwzc7c2r/1/1Pry8q1Vv//eMzi3izMBU7HQgWWCN+fBFxDMafFc7D7kCCi6IH8TnR3k0nAAwWvo7bXMP+w72AauF2xgKciD6YBtd/uWuP6To37tQaP4f7aXCkYg92DItc51Tkf/RZHUGyCf4amperCtDCNyHM1F3PWOw7LvNgMN4tBtWsdV7t2GRtRXluCPbQUb4MhwM8LXufQgnPQb/BhzBnPO7HfRHsqrwfcW4A/1F7Dzko7Ut5dpQp0YX25kOrfLvcA6wp9GIDdkyKCmIyJOZhEsaffSSL/x6kuTmQxpvH5L4q7qjQDQ4F9sb6WsVt0b3OBj4nX/3IB/jkkt5R/wziKOcZ9QeDuwvylqnpbfJX2Cq9VsSrW96reKt9G8/H6QgHu50kOjv/EYOB2GiMcowpy92yvYE57I0qNtD0wAhtLFb5ktwFvEa5ZREhuJbnKA6bi806esq1am3J+Qxm2iI7Gitz0NQzDFm7ZTPWPooUif6UA99fLDrLTsRf+SfuGwDuJctlMlmEW/FHlh/hPjMTcMw7AtGjXAHdgatQpWCTjvFqbUfvb/bXvXF37zQE1jiozso8GfkQ5I+nLaBb4Igf3PcoPsTOxOhZK6pmsnxLXVm0LvO7k7d7+ht8vqTesiS3oy7B4iDJP6d7aVMyR8gBgjQr6+x5MIIv259UaRwgDMHW8h/cVOvPMVwoDsD2mZ6LuIG7n2InidoB5mA2mjG/QO7EtYysCqJ7CHADLaIAGYVlhirqNzMFUzCEMxW9MvJH29vqoHN5D2zPELeTbUlw4HsNc24tgPJaK88GC125E+ztwDMWCwsCyuhc9v80h/iYZg+UA8PAeXnAsHYe18dkj5hF/Km5J8W3VZcBKBcaxEXAF7V15agnwE2DDAuMbXvttkeu+SvxMMgnfm2oO/SQ5nXdr9ckI3zoUU1m+iXmhejEJuJbO8vxdhikFtigw3oMoljdrBpakLoRPOzlvLND/jsKn8E3IjyJ8o7HkBN6bNwv/QXwC8MsC12q3dg2mQPDgPfgVKhm2dY1p3C5xcn7C2feOwUh8OvcnCW99urCDu/emTcVy1arowrKfVJ3OtJVtLhaX7vEd25BimWQmE7a4r4wv1n8GfTSr/Hnok7AY81AN4XsOvnp7BJ9KdHvMENbqBd2o9gi+1KprUiyn77kR3q3x+Yqd5ehzR2ADfBMQC+o/wMFVb3ejG/4GYvEJRTyLO60twazcqnp7NObV671OzMHREwO0EEvU12fgifN+lOU5anvDhvgPjQ+jW59Xw3yMGrEYp2MxG+cBhwG7YCrVdTCHzWG1Nq72t82wAKnPYw6XN2ORiI3o263oBrlR+N+sc7EqX3kYik+1/Euxr22PbdEHvQzYJsC1Av4owOfRyxrviLlNVLXo/gFchQUCVVlPZH0sv9QvMJVqVf19Cct9pWBN/GeSvxI+9+yATzsY24Z3BCajD/jCCNfZDq4MUwqoB/J9qSb/1ULs6bYX4TdhVRiCxeD/imrKzC0E9hGvvQF+7dbXIpyXOLhuEvvZttgZfbCvE069vzW+M8Gb6FVZD3dy99ZewbRdVZRgKIoxwP9S3pV9KbYFVLA1vi3vEsywm4fx+HIBbyv2sy0xGX2gxwV4VsA0Lp6brNbOO83J27O9iPkvtZNL/EqYO880yo1NTaTgNfg9QFj1e6KD62axj22HLdEH+Tzh7Yg3dPMisY9lhGMBlhanmal4vBiGucmX2TqeIl7rMifv8QGuofjON5uKfWwrXIk+wIMDPGvie4U/jPY0P9zB2dtTS0le0C5YD7+LT/emJJxeCZ+NZA5hZ8pDHVyXCf1rK7wN3e4xhfDr1iNob6I55u1LsTPHfBqbmqaLxmZGOYJib5OlwEcF/k3wPcwuDXB1oXv8LkLXVLYFzkSfpAMDPFs7eDK0xbsTxRbJE5hdoiw2wCpRnYPZh57EtG3d+7Sw9rcna985p/abDSq4/iSKJZ1egHkWxODJa7aMcFK6gx1cHZN4bjC6MWsa4SemZ1twN3Fr8HjMl8e7OH6N+QwVQRewJ+Y6Pr3AtXu26TWuPSn+tlmFYtnrpxMv8jkQi8pUOX8b4BqCbpd6gQ5J8uCJMz8hwLODg2cpcVfugRSzkF9MsRJm62LpQcsmRQi1mZiFvYjbRRfF4j1uIf4g2gqfwS8UYHWSg2d3beitxW/RBjOXsPvHZJEnA74r9OtUB1+9KQkiemJj7NzUzECqJVi8vrcYzgAal1XGU7bilgDPKHRP6l8pg24lxqEvjJDV3KMifpl4bqYd8B/KvSlnRgI/KHCdKttS4PvCfPSEV0iWEDfQjcJnsAyd7y4WORZRbcaXyvE59AkJWbk9mS9iKsgV8Ltoq3aUOvajXJqhqtsM9PSgYG+SK5zXeIj41vMoB9/lAZ5tHDyfVgfdCkxGG8TfAxxroL+FphPPdPIlkaverkc/7A2jXIWlRreL0A2ZXZh9x8N/jDA/6oNjEWG7iOpJ0baW9dXQtxdHB3hOETky4kVXJuCLBHwcvZDOOvjdX1rRHsISZSgYgWWQUbnnEA9A8zygTgzwHCtyLKZN8/qq/jjLyDfqDERPsjabeDYSTwz5fHSXhXdSTF3cqvYSer6sd+GzE10V4VsF3SX/afLzX01w9Kkt49Z/gdb5PwY4PihyZFgUXAieg34GfFYc5/aUy9wYaouoxmW9t/Y6eo34o53cMQPq6Q6u9wV47hI5rhDH2TQMRk+rf0SAR3V4W0g8fNbz9lDTyWwBvOHgzWvPY2eXQ7BFuxr/6qy5Qu1v761955Lab6oQEvVNMtnBG3uLjEUX/JB284sixyzarHrue9EnMy9X0hD0J/M1kf5sjG6oWoBmaFuXctuqV7FQW7XeX2/YssZRJorwJbQzyYbo/nRLiQemXS9yzSbfQ+AdjnFWkV+5Mqju6E8EOP5D5MiAj0T681MHl+LDM5xi2TzqT7PjKO6q0htWxtzFi+SqyjDlguLx7MnGHnI8BHN2VLk+EOBR/chC8UVNx01onQ6lf1Fros8k7IO0OrqaeCpaCbXLRb7urV5CoZERhmMoXrpAsfUMR/eFWky4tvoQ9DdfyDNCTfd0nTC+pmAg+tYoVOtBLcEWcys5XuTJCJ+H6jjAwVdvs4APCdxVYQ+KvU32E7iPc/DFqn79UOR5OsCxp8gxkzbJCL8p+hM172C9iciRYS7wITws8swgbkQbg3/hPYrFwzQbE/BvA18h7pqxMpadReG7P8LlOavmBaSNc3B4Mmg2DKr949EAx5Eixz8IaycmiTwZYU/iOn7s4MuwhGpVVqXyYjSWWsfT5x8IvB5Hz1AZicHoWsCQ2l3Nx/xxYWwNx7fROhtS36mF52PJws4VeRYSf3JugW9v/witFY46RuN7kywlXhtlVfRzXSwtqJpEMBRGe5HIUcQbu3L8Hq2zIadC9fxxZKQvqoYjpiYGK3GgLrKZ+DOm17EeloHlVCy24/za//eneLK5Cfi2hj8TONUAq8ciPMeIPM8EONR8Am1RLkF1ac5zj15d/H1GON5hgoMnpibeCP3tsYywWrI3jAVORvN7eqb23bHOa+zhGMNSwmlBwQ706vy+NcCzhYMnL3pxe/H3L0bG1HCMRl9EeSnrPyRyzIj0RT0LzSIequoJ9vl+hKs7hmAuMkVKKbyJ2Zs82RpV1XmGqU9DGIae0C3kCzUQ/dC/Sw7HSMe4qrQ/uaH6Oz0X4DhB5IhFi6nho1dGeIaiq61noAcnrQ3cJ/KG2r3EKzfVMRo95Hc2ceH7tcgVs7GoUachtbG6LS9aexIo768yUfxeaD+phok+Hvl8J5FncuTzPdELtJyJ+aDFsBnwZ7Ra4jFMAv6C5nk8G/2gOop4TfLY3NURuxchj4ruCC3ukK2kOyaK3+sVZQVEfZI9G/hMTTgQmtQxhPe93RG7yWri5pnEk22DxY3cQrW1vletcSrzfwG2pVEQG/ttIs9Ewg8ZVUDWCXz2nMihrtFeUVZAVM3Nc4HPJoocoUlVtT3TsHrieRhIvM53HRdhSdJCGIppzGKpcopgVeBq4tuiucT9pOrYOfL539GFLXRPVAEJLe7QQ7c7imoXgfICompWpub8fUX0J2sVAvJg5PPN0W0ZSrrL/6WaZHN52ALN4PkTkW8c4S1vhnkqKKhCQFYnX6GSt6Z6wqv9+xeUFRDVEW9Wzt/VbdHsWsuDKiCxG6MGFD1O2DMALL76WJGvDE4g/oa6D/2JG5sDdXGH7sl0TCMWw0DyHSDz1lRPlAq/LSsg6sXzBqP+flrk86oERE3tqRxWjySeUKIKrIgZzmJQD9ixOahCQMCEREHeGukIAVG3I3lPf/UNNDfyubrHj91c1bntT5HPBwCfFLnA4uEvxrwNDsMiCOc7fq9c606RK7awVQGJ3RPlDQL5ayS0o1B+L6FISs3uUIvGvJ7zd1XAYpOpGoNmRj5XSxrE3Ck2R98+PoalzOy+BboAi+O+AU1oJ2ARgKFtX6zPdcQs6q+IPLF7ogpI3hrJW1M9Uap+S9k3iGrVXZTzd7XzVQlIjEd92oQ0YaCHe87DPAl6Ox88g9klFohcsWs+KfLEHlrqwq5KQPLWyELx96XqRLZaQNTfx7ZYai6r0E3pQjszLI7wgG7buZKwCvxpLFuMgtiTvx7NF8NwwoFGzRaQvDWiCkipc2BZAVEvXlZAqnqDhARNFbKYsIKeH/Zu4Tt3iVyxa2aYP1cMAwnnG2u2gOStsbw1pf5eQrNSoyhPrhCWRD5Xz1Ihnio46lDnVZkXde6Uayp9h7Azp8oRm0+VJw9l15SEsgJSVorV38feNIsr4FFf2YpiQvHPAstiWMV3wLZQMcQyUdYROveoT+TYfJblqaofQTRLQPIWZlUCoh5kQ9uoOZhbfgwrERcS1ZFuP8K5bd+G1VNUMCXy+Ui0ilQLCauYqxAyKL897wgBKXtQUnX9sf2s8vSEsIYmI64GriPmAHePyDMccyHvLVfxGliyNVWVHrum6rQXU+Oqmr7YPVHPjXmCpp5fSwlIWTuIusBXofeJVxd2zBo6G83pcTxhdefzaL5hm2Ax6Hm4FxuvYsDcHLNRXM7yQ/tWWMituoimEfczU+Mino98HipR0B0xQ55q4c5zjhwh/t5jcP03lH2DqJ6deZOhWkNjk/myyDMx8rlqJQ7V1APbqoUKwvTEypgF/dJaOwxfJFw9p3EI24hcsbibiSJP7J6U9eMrK2ASygpIWX8Y9fcxq3TsqVdHzFL+gMizq/Cd89HPWGWwAK1GY174ak+EihuBbuN5LvK5Wtc8b42oXrrqGusVZQWk7BtAdVgbR3gvHopY7I5Y9KJilwBz6Iv5LE3FUiI1GmcTn8dN0YvoxOZA3aqFvIdHom2RlpH/JlLfQOoa7RVlBUQ91OYFrcxD9+2ZGPgs5npeR6xU9D1oxjSwlKQxnIretyJ4CPiq8D2lr2BJ3e6LfEcNGw6NW1UYTCNfha9mr1TXaK8oKyAviN8LTchzIkfIDfshkWNNwq/2xehhpQcTT3w9H6sbX+oploOZNe6YlmY48CmR81YsBVAe1kXf+4cCq9SwgtBbSH0jqmu0V5QVEDUIJyQgMf19HaEkBS+iv4l2jHx+rcgzFviM8L0nsbxZpQ6LPTAL2A3N3nIYuutLLHOMmhgjdj/UbVpofFXkQ2g41LQ/ofBItchjLO3or0SeWHz2KtjWT037o6ob18XedGXT/jyA/vQchZ5hcR5xzdnVItfPIzxVpP2ZJnKoWXMaAjVxXEb+Qtpd/H3sIKqmtJxF3P5zqWNcigapjqHAGdjWyysY87AKwB73bU/y7YuFvquJp0NlJQag5+rK07yNcoxLtfw3DGrq0bxY5zXE32eEX6ubOXhiKk9PlvhlaGrf7ngr8HUH/1cJF6fpDR92jCEjrsDwVAALBXlt4ODJM7TuJP6+5alHwQ61Smc/H+BQX5f7R/oyXeRR0uD8TuTKsK2WN73MYJG7iNfr2viSV98icKpVjGM2qUNEnpDq/iiR47fCuIKowt09ZliqI/SEisV417Fb5PPrRZ6PEj87fFnkAnvS3YCekbGRWBn4Db5SDLGS2mOwN4iC2EH//SJPaE2oquaY+01TcCCaNIfcONQnwiuEo912EXkyrKRwDFc5+DK0YjR1NOoN4im8mREv4QyW30vlC6UN8pQLPzTAM0Xk+JgwtoZDLcGWke8e4OEIxV4PQt9mPUv8sL4mekbzDHP7UL1vGyUgnlLVc4gb3Iagz+lUwruSHRx9y/NUGO/gaIsSbJ4innsGeNRs3WdH+vMNkSfDSibE8HkHX4b++m+EgIxw9lXJp6UWq8mA0yJcaoXa0PljH5GjlAW9atyM1unvBDhUleRUwtusddELxzxLPPBmAHp1pQwrvqOgEQLShXkDKLw3Ea8COwxdgbKUsJZxEPrbLVRz5QKRI3YWaiq+jNbpkNV8L5Ejw17VIah18DK09KBjMMGMcc1Gj7Fp1BbrVoFzKprLyMliHzPiHgjvd3DtHuB5XuQ4Rhhf07AD+uDz9pYrou/3r4j0x3NYfwPN9XpzoX9KIuk6GiUg2xAuuDkXbRu4Fr5KWLGcvqoV/lXyjaEbO/rzbmGMTUMXupU1pD26QuRYQFyNeZfIlRF3Y6ljN/KF5Cf41OaNtIPsR+/uMrOIlziow7OtvD3CtSoWG6NwhapTHS9yzKJ5GXtkqFVh/xLg8Fh/vxTpzwccXBlxI2QdEzH3kkcwT+SbMLuKF40UEDDt1KmYbehabCupxlB8RuxbvcWcGE9xcIVsXfeKHLEdRktwEPokTMzhGAy8JHJMJ+6XNNnRp9fRo+WqQKMFpCjWx7Zh6rzdFOFbEd0d6Xnyn/zrOvr0cdeIm4Tx6Nqj4wM8Z4ocGXE17RaOPmWYp2ypZMcOtKOArIS9GdX5WkJca+dRk58c4PmKo0+lMro3EneiDSIU4LQW+qJ+hmpLOmeYZTmm/qwC7SYgA4HrxD7V23kRzqHo9q0lhHOEPSHy3CqPuAXwGJVCWTbU2I4Mq6kRwluwuGbPjT9LHnFxtJuAnCf2p95eIB4/8kUHX8jlZUcHz8HqgFuBVQmrGLu3kEftdiJHhp1FYomn93bw1duJ6qALop0E5GSxL91byFYB9mBSzx4Z4RSrV4oci9CjJ1sG1U18PmFV7V9Engz4mtAvTxBUvR0kjbgY2kVADhP70b1dIPCe6+C7PcAzFou7V3h+rQy41fgY1Tyl1UjDDLOLxDRQq2Dx4Z6F8Ab2JGwE2kFAxuIzBmZYMoaYQ+ZG6C4vGWHbzCkOnr20YbcWK2Bu6cqAXiacGeTPIk+GqXRjh+tN8C+IRqkM20FAPi32ofsDI1aoZyC++xbKIjMMPTx3OuVT6TYNZ6FP0GcDPDs7eDK0LCP74lP9xgySRdEOAnKa2IcMc0b8iMCpxvbUW0hZc6SD53RpxG2Ct6MvwimEJd/jePg6WsaPkxycjdKKtIOAHCH2IUMLMFsPn5Hx6gDXEDQH0brwTpBG3Ebw6NRDb5F3oPvxZFjqTKUOhuI2vZiwbr4M2kFA1sEWV6wP5whcQ4D7Ba56m084W+bRDi4lKrLtsA36AKcRPot4tmwZmh1jAJaBPcTzDXGsRdAOAgIWoxO6/o9EnvMjPD1baEs0HP0cm2FZaDoSf0QfZCguYzjmGOi5AfsI/RuEBef03A4uw274IHGcRdAuAjIYi6Xved1lWPJtxSv2k738PtSeIuzSc7KDq6GW80a7VOyOZdhQ8Aa2h83L5r0rWnqaOt4EtkXLurIpFg48Hnub/ZJwgZwQhhLP2QsmfEpq/qXo+XAXoJej64lNsDl4KzYH16Il3t4SexAqYwZb1DsBf8j5fAJWUEj1idsNs711LDxxGZdFuC5ycGWYO0SjzhDdMQDToHkc/RrVHqZ57hYT0b2v6y2W+eUaB9cdVQ6mVXgf+oCXYU/9PKyMJTT2LphGGfvAhKNe4amd2o8bOGYwj9nHnX16nHAq0F2dfNtVPKaWQYmT7r6gQ4kU3o1Pq5VhbiuekmYeeOJgmt0+0aAxjwD+6uzLAixsOQ/D8D38bqh4TC3FlviMc2dG+I51cNXbncSdGovAo9psdrurAeNdBd+2ud6OjPB6tGBLsVzMfQqe88MSTKhC8GY9zPAdJhUMQrMjtKqVKoHcC4ZiKUG9/YgVNN0e3wNUcZbsOIzDMlaok/AoYae4lTANlfdmKSXLVAwtcP1mtyr9k04pcP17CT+URmCBbyrfLHx5hzsKHt+ajHCGCzAtijcYajbVZbzobwKiRgfW2zTiWe/VrPH1FvK66HgMAv6Gb0JiB80t8OXPzdALQMbQnwRkFed1XydcNg/8sSh30YbpfKrGJvi0UHOIl9HazcnpLUaTh/4kIEPQo0UXEs+/tRWm2VLHsQC9+GfHQ81QUW/PELcm740WpKPWVFfgEZDXKm7NFhDQXIcWEa8lsjp+A6Mna2XHYzBWj9szQbcT99Ldh7iQHFLhOFQBKer+EUIrBGRXwtqmxcSj+lZETwBXb/fQWL+4toQ3QVlGvNAkmJDkvbq/V+kI+p+AgOW56u0hNJdweQuwRe5xJckwH71mJvRrKxyIb7IyNBf09TE37SexbH03YGlNq0Z/FBCwmPPvYjaRP2D3RKnR6M1RlgH/XXHfOw5Fso0o0W3NQH8VkCI4Hf99vrAlPW0zrIRlWvRM3DJMRdhqJAHR4KlxWG/307w0sG2PtdCzV3RvSgmxRiIJSBxejWWGVaKqylbVZ7AjvlxK9XZUC/paRxKQME7J6VOoLSQc8tCvcSj+Cc0oVp+jCiQByYc351a9KYVV+zXOwD+poboSjUQSkN7RhS/pQr19pQV97UgUUQe2Ij4gCUjv8GS0qbdQBeSEHihiUNqlBf1MAtI7PKX0Mix7ezNqsvQprIAv+VwrrK1JQHrHRo7+Xd2iPvYJdGEpeGKTfG+L+pcEJB8PCn27qoX96zPoIrzdmk/ramInAcnHNoTd2X/Wwr71OQzG/H16FlKZQmtTvyQBCWN77B71nIsz6BDv3E47GI0FdsDimKdgmUqWtrA/Q7E3WAwLqTZZBNhiU9BF80tJd8cgzPC3DhbHcgcW9pzQD5DeIH0cfT6+NyGhDJKAJCQEkAQkISGAJCAJCQEkAUlICCAJSEJCAElAEhICSAKSkBBAEpCEhACSlbV5aETxnoQGIwlIczAES8Kd0GFIW6yEhACSgCQkBJAEJCEhgCQgfR9q3EhCL0gCUg6LaG0wUgwLaG1AWccjCUg5LKN1CSMU3N3qDiQk7I0e3dfstkcDx52QIONrtF4YerbTGzrifoJOS9rQzvgglml+Eq2razEPK7N9LnBzi/qQkJCQkJCQkJCQkJCQkJCQkJCQkJCQkJCQkJCQkJCQkJCQkJCQkJCQkJCQkJCQkNBY/D9dB3B0LwYhBAAAAABJRU5ErkJggg==;" vertex="1" parent="1">
          <mxGeometry x="456" y="460" width="100" height="100" as="geometry" />
        </mxCell>
        <mxCell id="9z0CNP4QUnbibLwf2Hai-7" value="" style="shape=image;verticalLabelPosition=bottom;labelBackgroundColor=default;verticalAlign=top;aspect=fixed;imageAspect=0;image=data:image/svg+xml,PHN2ZyB4bWxucz0iaHR0cDovL3d3dy53My5vcmcvMjAwMC9zdmciIHZpZXdCb3g9IjAgMCAyNCAyNCIgaGVpZ2h0PSI4MDBweCIgd2lkdGg9IjgwMHB4Ij48cGF0aCBkPSJNMTIgOS4xMzdhNy4wNjIgNy4wNjIgMCAwIDEgNC45NDQgMi4wMDhsLS42OTYuNzE4YTYuMDkyIDYuMDkyIDAgMCAwLTguNDk2IDBsLS42OTYtLjcxOEE3LjA2MiA3LjA2MiAwIDAgMSAxMiA5LjEzN3ptNy43NzgtLjgxNWExMS4wMTIgMTEuMDEyIDAgMCAwLTE1LjU1NiAwbC43MDcuNzA3YTEwLjAxMSAxMC4wMTEgMCAwIDEgMTQuMTQyIDB6TTEuMzk0IDUuNDk0TDIuMSA2LjJhMTQuMDE3IDE0LjAxNyAwIDAgMSAxOS43OTggMGwuNzA3LS43MDdhMTUuMDE2IDE1LjAxNiAwIDAgMC0yMS4yMTIgMHpNMjEgMTkuMDJWMjJIM3YtMi45OEEzLjAyNCAzLjAyNCAwIDAgMSA2LjAyIDE2SDlhMyAzIDAgMCAxIDYgMGgyLjk4QTMuMDI0IDMuMDI0IDAgMCAxIDIxIDE5LjAyem0tMSAwQTIuMDIyIDIuMDIyIDAgMCAwIDE3Ljk4IDE3SDYuMDJBMi4wMjIgMi4wMjIgMCAwIDAgNCAxOS4wMlYyMWgxNnpNMTAgMTZoNGEyIDIgMCAwIDAtNCAweiIvPjxwYXRoIGQ9Ik0wIDBoMjR2MjRIMHoiIGZpbGw9Im5vbmUiLz48L3N2Zz4=;" vertex="1" parent="1">
          <mxGeometry x="616" y="397.77" width="86.12" height="86.12" as="geometry" />
        </mxCell>
        <mxCell id="9z0CNP4QUnbibLwf2Hai-9" value="" style="endArrow=classic;startArrow=none;html=1;rounded=0;entryX=0.424;entryY=0.362;entryDx=0;entryDy=0;entryPerimeter=0;strokeColor=#3399FF;startFill=0;strokeWidth=2;" edge="1" parent="1">
          <mxGeometry width="50" height="50" relative="1" as="geometry">
            <mxPoint x="300" y="290" as="sourcePoint" />
            <mxPoint x="440.4000000000001" y="229.96000000000004" as="targetPoint" />
          </mxGeometry>
        </mxCell>
        <mxCell id="9z0CNP4QUnbibLwf2Hai-10" value="" style="endArrow=classic;startArrow=none;html=1;rounded=0;strokeColor=#3399FF;startFill=0;strokeWidth=2;" edge="1" parent="1" target="9z0CNP4QUnbibLwf2Hai-3">
          <mxGeometry width="50" height="50" relative="1" as="geometry">
            <mxPoint x="360" y="390" as="sourcePoint" />
            <mxPoint x="460" y="290" as="targetPoint" />
          </mxGeometry>
        </mxCell>
        <mxCell id="9z0CNP4QUnbibLwf2Hai-11" value="" style="endArrow=classic;startArrow=none;html=1;rounded=0;strokeColor=#3399FF;startFill=0;strokeWidth=2;" edge="1" parent="1" target="9z0CNP4QUnbibLwf2Hai-3">
          <mxGeometry width="50" height="50" relative="1" as="geometry">
            <mxPoint x="497" y="460" as="sourcePoint" />
            <mxPoint x="597" y="360" as="targetPoint" />
          </mxGeometry>
        </mxCell>
        <mxCell id="9z0CNP4QUnbibLwf2Hai-12" value="" style="endArrow=classic;startArrow=none;html=1;rounded=0;strokeColor=#3399FF;startFill=0;strokeWidth=2;" edge="1" parent="1" target="9z0CNP4QUnbibLwf2Hai-3">
          <mxGeometry width="50" height="50" relative="1" as="geometry">
            <mxPoint x="656.06" y="398" as="sourcePoint" />
            <mxPoint x="662.06" y="230" as="targetPoint" />
          </mxGeometry>
        </mxCell>
        <mxCell id="9z0CNP4QUnbibLwf2Hai-13" value="" style="endArrow=classic;startArrow=none;html=1;rounded=0;strokeColor=#3399FF;startFill=0;strokeWidth=2;" edge="1" parent="1" target="9z0CNP4QUnbibLwf2Hai-3">
          <mxGeometry width="50" height="50" relative="1" as="geometry">
            <mxPoint x="756" y="306" as="sourcePoint" />
            <mxPoint x="674.94" y="200" as="targetPoint" />
          </mxGeometry>
        </mxCell>
        <mxCell id="9z0CNP4QUnbibLwf2Hai-14" value="" style="endArrow=classic;startArrow=none;html=1;rounded=0;strokeColor=#3399FF;startFill=0;strokeWidth=2;" edge="1" parent="1">
          <mxGeometry width="50" height="50" relative="1" as="geometry">
            <mxPoint x="296" y="600" as="sourcePoint" />
            <mxPoint x="381" y="600" as="targetPoint" />
            <Array as="points">
              <mxPoint x="326" y="600" />
            </Array>
          </mxGeometry>
        </mxCell>
        <mxCell id="9z0CNP4QUnbibLwf2Hai-15" value="" style="endArrow=none;startArrow=classic;html=1;rounded=0;entryX=0.424;entryY=0.362;entryDx=0;entryDy=0;entryPerimeter=0;strokeColor=#00CC00;startFill=1;strokeWidth=2;endFill=0;" edge="1" parent="1">
          <mxGeometry width="50" height="50" relative="1" as="geometry">
            <mxPoint x="275" y="260" as="sourcePoint" />
            <mxPoint x="415" y="200" as="targetPoint" />
          </mxGeometry>
        </mxCell>
        <mxCell id="9z0CNP4QUnbibLwf2Hai-16" value="" style="endArrow=none;startArrow=classic;html=1;rounded=0;entryX=-0.027;entryY=0.951;entryDx=0;entryDy=0;entryPerimeter=0;strokeColor=#00CC00;startFill=1;strokeWidth=2;endFill=0;" edge="1" parent="1" target="9z0CNP4QUnbibLwf2Hai-3">
          <mxGeometry width="50" height="50" relative="1" as="geometry">
            <mxPoint x="320" y="390" as="sourcePoint" />
            <mxPoint x="430" y="280" as="targetPoint" />
          </mxGeometry>
        </mxCell>
        <mxCell id="9z0CNP4QUnbibLwf2Hai-17" value="" style="endArrow=none;startArrow=classic;html=1;rounded=0;entryX=-0.027;entryY=0.951;entryDx=0;entryDy=0;entryPerimeter=0;strokeColor=#00CC00;startFill=1;strokeWidth=2;endFill=0;exitX=0.25;exitY=0;exitDx=0;exitDy=0;" edge="1" parent="1" source="9z0CNP4QUnbibLwf2Hai-6">
          <mxGeometry width="50" height="50" relative="1" as="geometry">
            <mxPoint x="410" y="407" as="sourcePoint" />
            <mxPoint x="492" y="292" as="targetPoint" />
          </mxGeometry>
        </mxCell>
        <mxCell id="9z0CNP4QUnbibLwf2Hai-18" value="" style="endArrow=none;startArrow=classic;html=1;rounded=0;entryX=-0.027;entryY=0.951;entryDx=0;entryDy=0;entryPerimeter=0;strokeColor=#00CC00;startFill=1;strokeWidth=2;endFill=0;" edge="1" parent="1" source="9z0CNP4QUnbibLwf2Hai-7">
          <mxGeometry width="50" height="50" relative="1" as="geometry">
            <mxPoint x="540" y="468" as="sourcePoint" />
            <mxPoint x="561" y="300" as="targetPoint" />
          </mxGeometry>
        </mxCell>
        <mxCell id="9z0CNP4QUnbibLwf2Hai-19" value="" style="endArrow=none;startArrow=classic;html=1;rounded=0;entryX=-0.027;entryY=0.951;entryDx=0;entryDy=0;entryPerimeter=0;strokeColor=#00CC00;startFill=1;strokeWidth=2;endFill=0;exitX=0.02;exitY=0.369;exitDx=0;exitDy=0;exitPerimeter=0;" edge="1" parent="1" source="9z0CNP4QUnbibLwf2Hai-5">
          <mxGeometry width="50" height="50" relative="1" as="geometry">
            <mxPoint x="668" y="318" as="sourcePoint" />
            <mxPoint x="600" y="220" as="targetPoint" />
          </mxGeometry>
        </mxCell>
        <mxCell id="9z0CNP4QUnbibLwf2Hai-20" value="" style="endArrow=none;startArrow=classic;html=1;rounded=0;entryX=-0.027;entryY=0.951;entryDx=0;entryDy=0;entryPerimeter=0;strokeColor=#00CC00;startFill=1;strokeWidth=2;endFill=0;" edge="1" parent="1">
          <mxGeometry width="50" height="50" relative="1" as="geometry">
            <mxPoint x="380" y="630" as="sourcePoint" />
            <mxPoint x="296" y="630" as="targetPoint" />
          </mxGeometry>
        </mxCell>
        <mxCell id="9z0CNP4QUnbibLwf2Hai-21" value="" style="endArrow=none;startArrow=classic;html=1;rounded=0;entryX=-0.027;entryY=0.951;entryDx=0;entryDy=0;entryPerimeter=0;strokeColor=#FF6666;startFill=1;strokeWidth=2;endFill=0;" edge="1" parent="1">
          <mxGeometry width="50" height="50" relative="1" as="geometry">
            <mxPoint x="380" y="660" as="sourcePoint" />
            <mxPoint x="296" y="660" as="targetPoint" />
          </mxGeometry>
        </mxCell>
        <mxCell id="9z0CNP4QUnbibLwf2Hai-22" value="" style="endArrow=none;startArrow=classic;html=1;rounded=0;entryX=-0.027;entryY=0.951;entryDx=0;entryDy=0;entryPerimeter=0;strokeColor=#FF6666;startFill=1;strokeWidth=2;endFill=0;exitX=1;exitY=0.5;exitDx=0;exitDy=0;" edge="1" parent="1" source="9z0CNP4QUnbibLwf2Hai-7">
          <mxGeometry width="50" height="50" relative="1" as="geometry">
            <mxPoint x="864" y="342.23" as="sourcePoint" />
            <mxPoint x="780" y="342.23" as="targetPoint" />
          </mxGeometry>
        </mxCell>
        <mxCell id="9z0CNP4QUnbibLwf2Hai-23" value="" style="endArrow=none;startArrow=classic;html=1;rounded=0;entryX=-0.027;entryY=0.951;entryDx=0;entryDy=0;entryPerimeter=0;strokeColor=#FF6666;startFill=1;strokeWidth=2;endFill=0;exitX=0.98;exitY=0.57;exitDx=0;exitDy=0;exitPerimeter=0;" edge="1" parent="1" source="9z0CNP4QUnbibLwf2Hai-6">
          <mxGeometry width="50" height="50" relative="1" as="geometry">
            <mxPoint x="580" y="578.77" as="sourcePoint" />
            <mxPoint x="658" y="480" as="targetPoint" />
          </mxGeometry>
        </mxCell>
        <mxCell id="9z0CNP4QUnbibLwf2Hai-24" value="" style="endArrow=none;startArrow=classic;html=1;rounded=0;entryX=-0.027;entryY=0.951;entryDx=0;entryDy=0;entryPerimeter=0;strokeColor=#FF6666;startFill=1;strokeWidth=2;endFill=0;exitX=0.917;exitY=1.001;exitDx=0;exitDy=0;exitPerimeter=0;" edge="1" parent="1" source="9z0CNP4QUnbibLwf2Hai-4">
          <mxGeometry width="50" height="50" relative="1" as="geometry">
            <mxPoint x="360" y="547" as="sourcePoint" />
            <mxPoint x="464" y="510" as="targetPoint" />
          </mxGeometry>
        </mxCell>
        <mxCell id="9z0CNP4QUnbibLwf2Hai-25" value="" style="endArrow=none;startArrow=classic;html=1;rounded=0;entryX=-0.027;entryY=0.951;entryDx=0;entryDy=0;entryPerimeter=0;strokeColor=#FF6666;startFill=1;strokeWidth=2;endFill=0;exitX=0.5;exitY=1;exitDx=0;exitDy=0;" edge="1" parent="1" source="9z0CNP4QUnbibLwf2Hai-2">
          <mxGeometry width="50" height="50" relative="1" as="geometry">
            <mxPoint x="202" y="477" as="sourcePoint" />
            <mxPoint x="306" y="440" as="targetPoint" />
          </mxGeometry>
        </mxCell>
        <mxCell id="9z0CNP4QUnbibLwf2Hai-26" value="" style="endArrow=classic;startArrow=none;html=1;rounded=0;entryX=-0.027;entryY=0.951;entryDx=0;entryDy=0;entryPerimeter=0;strokeColor=#FF6666;startFill=0;strokeWidth=2;endFill=1;exitX=0.5;exitY=1;exitDx=0;exitDy=0;" edge="1" parent="1">
          <mxGeometry width="50" height="50" relative="1" as="geometry">
            <mxPoint x="230" y="360" as="sourcePoint" />
            <mxPoint x="290" y="450" as="targetPoint" />
          </mxGeometry>
        </mxCell>
        <mxCell id="9z0CNP4QUnbibLwf2Hai-27" value="" style="endArrow=classic;startArrow=none;html=1;rounded=0;strokeColor=#FF6666;startFill=0;strokeWidth=2;endFill=1;" edge="1" parent="1">
          <mxGeometry width="50" height="50" relative="1" as="geometry">
            <mxPoint x="370" y="500" as="sourcePoint" />
            <mxPoint x="470" y="530" as="targetPoint" />
          </mxGeometry>
        </mxCell>
        <mxCell id="9z0CNP4QUnbibLwf2Hai-28" value="" style="endArrow=classic;startArrow=none;html=1;rounded=0;entryX=0.75;entryY=1;entryDx=0;entryDy=0;strokeColor=#FF6666;startFill=0;strokeWidth=2;endFill=1;exitX=0.5;exitY=1;exitDx=0;exitDy=0;" edge="1" parent="1" target="9z0CNP4QUnbibLwf2Hai-7">
          <mxGeometry width="50" height="50" relative="1" as="geometry">
            <mxPoint x="556" y="530" as="sourcePoint" />
            <mxPoint x="616" y="620" as="targetPoint" />
          </mxGeometry>
        </mxCell>
        <mxCell id="9z0CNP4QUnbibLwf2Hai-29" value="" style="endArrow=classic;startArrow=none;html=1;rounded=0;entryX=0.75;entryY=1;entryDx=0;entryDy=0;strokeColor=#FF6666;startFill=0;strokeWidth=2;endFill=1;exitX=0.5;exitY=1;exitDx=0;exitDy=0;" edge="1" parent="1" target="9z0CNP4QUnbibLwf2Hai-5">
          <mxGeometry width="50" height="50" relative="1" as="geometry">
            <mxPoint x="702.12" y="460" as="sourcePoint" />
            <mxPoint x="762.12" y="550" as="targetPoint" />
          </mxGeometry>
        </mxCell>
        <mxCell id="9z0CNP4QUnbibLwf2Hai-30" value="&lt;font style=&quot;font-size: 20px;&quot;&gt;Uplink communications&lt;/font&gt;" style="rounded=0;whiteSpace=wrap;html=1;fillColor=none;fontSize=20;fontColor=#FFFFFF;strokeColor=none;" vertex="1" parent="1">
          <mxGeometry x="391" y="580" width="249" height="40" as="geometry" />
        </mxCell>
        <mxCell id="9z0CNP4QUnbibLwf2Hai-31" value="&lt;font style=&quot;font-size: 20px;&quot;&gt;Feedback information&lt;/font&gt;" style="rounded=0;whiteSpace=wrap;html=1;fillColor=none;fontSize=20;strokeColor=none;fontColor=#FFFFFF;" vertex="1" parent="1">
          <mxGeometry x="391" y="620" width="239" height="30" as="geometry" />
        </mxCell>
        <mxCell id="9z0CNP4QUnbibLwf2Hai-32" value="&lt;font style=&quot;font-size: 20px;&quot;&gt;D2D communication&lt;/font&gt;" style="rounded=0;whiteSpace=wrap;html=1;fillColor=none;fontSize=20;strokeColor=none;fontColor=#FFFFFF;" vertex="1" parent="1">
          <mxGeometry x="391" y="650" width="229" height="30" as="geometry" />
        </mxCell>
      </root>
    </mxGraphModel>
  </diagram>
</mxfile>
